<?xml version="1.0" encoding="UTF-8" standalone="no"?>
<!-- Created with Inkscape (http://www.inkscape.org/) -->

<svg
   version="1.1"
   id="svg123"
   width="289.89319"
   height="817.15228"
   viewBox="0 0 289.89319 817.15228"
   xmlns="http://www.w3.org/2000/svg"
   xmlns:svg="http://www.w3.org/2000/svg">
  <defs
     id="defs127" />
  <g
     id="g129"
     transform="translate(-298.19525,-19.514158)">
    <path
       style="fill:#fcfcfa;fill-opacity:1;stroke-width:0.96"
       d="m 440.83001,834.36135 c -0.35845,-1.19796 -1.28225,-10.03684 -3.4448,-32.95983 -1.49687,-15.86673 -2.84248,-36.22842 -3.86995,-58.56 -0.53444,-11.616 -1.40939,-30.624 -1.94432,-42.24 -2.59583,-56.36843 -3.4853,-69.40114 -5.73012,-83.95925 -0.89648,-5.81394 -0.81923,-9.51205 0.41108,-19.68 3.16002,-26.11573 3.44006,-28.94675 3.44006,-34.77635 0,-3.29228 0.42492,-9.13562 0.94427,-12.98518 1.08465,-8.03963 2.61739,-43.13138 3.83577,-87.81869 0.46335,-16.99471 1.15135,-38.05471 1.52888,-46.8 0.40374,-9.35254 0.32866,-15.90053 -0.18233,-15.90053 -0.47781,0 -5.83176,4.95712 -11.89767,11.01584 -9.82884,9.81717 -16.72527,16.85727 -14.68714,13.55951 0.4278,-0.6922 -0.67489,-5.34337 -1.37686,-4.90952 -0.61819,0.38206 2.85525,1.99377 3.16264,2.49112 0.30739,0.49737 -0.74656,2.20973 -2.34209,3.80527 -1.59553,1.59553 -2.68933,3.42675 -2.43066,4.06937 0.25866,0.64263 2.21079,2.4597 4.33807,4.03794 5.59865,4.15369 17.18712,16.35077 17.18712,18.08977 0,3.0495 -12.79625,16.1962 -29.28,30.08188 -4.87622,4.10764 -19.73646,15.12015 -28.32,20.98714 -8.33815,5.69926 -23.74894,13.89168 -26.13169,13.89168 -0.72837,0 1.61766,-0.71603 1.11606,-0.28134 -2.24978,1.94969 -24.4123,7.73627 -33.15412,8.5417 -8.3771,0.77183 -8.16907,1.10999 -8.80404,-14.31222 -0.43464,-10.55658 0.54395,-19.9149 2.62971,-25.14814 0.42087,-1.056 1.28812,-3.864 1.92721,-6.24 2.05686,-7.64702 16.44463,-35.04818 18.09642,-34.41432 0.67319,0.25833 -2.16007,5.73008 -2.45004,4.62125 -0.29277,-1.11955 0.6637,-3.18867 2.50865,-5.42691 1.64002,-1.98961 2.98184,-4.10009 2.98184,-4.68996 0,-1.2928 16.93624,-15.48615 17.73521,-14.94767 0.31083,0.20949 -6.64851,9.03565 -3.89172,5.39754 2.75678,-3.63811 -16.48609,15.15661 -16.97699,14.85321 -1.13658,-0.70244 27.90981,-38.54436 33.37134,-43.35179 2.27523,-2.00274 4.72834,-3.64135 5.45136,-3.64135 1.32027,0 11.41253,6.27688 12.3108,7.65671 0.78598,1.20733 10.87365,9.62329 11.53482,9.62329 0.55686,0 9.14512,-6.45348 12.49898,-9.3921 0.7734,-0.67767 7.4542,-5.96741 14.8462,-11.755 14.31677,-11.20936 16.8,-13.34397 16.8,-14.44141 0,-0.38093 -1.48069,-1.99266 -3.29042,-3.58162 -1.80974,-1.58896 -3.03374,-3.14572 -2.72,-3.45945 0.31373,-0.31373 -0.0542,-0.57042 -0.81765,-0.57042 -0.76344,0 -2.01825,-0.87431 -2.78844,-1.94291 -0.77021,-1.0686 -3.04537,-3.26487 -5.05593,-4.8806 l -3.65556,-2.93767 -4.8101,1.72969 c -3.32848,1.19691 -5.01524,1.40943 -5.47602,0.68998 -0.36624,-0.57184 -1.63788,-1.34304 -2.82588,-1.71379 -1.188,-0.37075 -2.16,-1.10247 -2.16,-1.62604 0,-0.52359 -0.43505,-0.68309 -0.96678,-0.35446 -0.53173,0.32861 -1.225,-0.0754 -1.5406,-0.89783 -0.31559,-0.82245 -0.92595,-1.27771 -1.35634,-1.01171 -0.4304,0.266 -1.65282,-0.62275 -2.7165,-1.975 -1.06368,-1.35224 -2.28627,-2.48991 -2.71687,-2.52815 -1.78208,-0.15825 -8.94291,-5.78642 -8.94291,-7.02883 0,-0.7398 -4.57268,-4.196 -9.98468,-8.28076 -5.412,-4.08477 -10.82142,-8.08563 -11.44843,-8.64769 -0.62702,-0.56207 -2.78785,-2.27555 -4.78949,-3.85955 -2.00164,-1.584 -6.69569,-4.74313 -9.87504,-7.39073 -10.50778,-8.75034 -8.60478,-7.78945 -9.54763,-7.20674 -0.51272,0.31689 -5.92129,-4.08033 -6.86993,-4.86373 -0.94864,-0.78345 -4.48489,-3.6085 -7.85833,-6.27789 -9.13395,-7.22766 -18.96841,-16.26607 -18.42161,-17.15079 0.26826,-0.43408 -1.80196,-3.60082 -0.58407,-2.12513 l 1.17671,1.42579 2.28984,2.69454 c 3.44532,4.05424 0.96141,3.16384 -2.96755,-0.96 -3.15035,-3.30662 -3.44475,-4.10893 -3.61248,-9.84516 -0.16766,-5.7341 0.0381,-6.44647 2.51504,-8.70515 4.00184,-3.64927 7.63311,-5.68969 10.12576,-5.68969 1.21862,0 4.51152,1.512 7.31757,3.36 2.80605,1.848 5.4962,3.36 5.97811,3.36 0.48192,0 0.87621,0.33886 0.87621,0.75302 0,0.41416 1.404,1.57256 3.12,2.57424 1.716,1.00167 4.632,3.00369 6.48,4.44894 1.848,1.44525 4.68472,3.41885 6.30383,4.38576 3.75146,2.24035 37.01281,26.54015 44.09617,32.21541 0.528,0.42304 5.70634,4.29005 11.50743,8.59335 27.46952,20.37715 25.85272,18.67737 25.12976,26.41937 -0.54193,5.8034 -0.43648,6.22432 2.18303,8.71394 4.93934,4.69441 7.73788,6.93597 8.65938,6.93597 0.49774,0 1.32606,0.7524 1.8407,1.672 0.51463,0.91961 1.17116,1.43655 1.45895,1.14876 1.47007,-1.47009 2.47641,-59.20742 2.4879,-142.74076 l 0.0129,-93.36 -2.16,-0.071 c -1.188,-0.0391 -14.66743,-0.0707 -29.95428,-0.0702 -16.55121,4.9e-4 -28.51427,-0.38451 -29.57421,-0.95177 -1.33814,-0.71616 -1.70691,-1.83055 -1.48572,-4.4898 l 0.29421,-3.53721 29.76,-0.16079 c 16.368,-0.0884 30.58614,-0.19644 31.59585,-0.24 1.78835,-0.0772 1.81999,-1.16365 1.22272,-41.976494 -0.33723,-23.043507 -0.73136,-42.010133 -0.87586,-42.148059 -0.14449,-0.137925 -8.42217,-0.811052 -18.39486,-1.495837 -19.81812,-1.360834 -21.05875,-1.771628 -22.05154,-7.301677 -1.12923,-6.290018 -3.45812,-6.04245 56.33226,-5.988286 56.5664,0.05124 91.20989,1.000655 94.32244,2.584926 1.01694,0.517619 4.44099,2.183826 7.60899,3.702681 11.38349,5.457661 22.0826,18.737244 25.6749,31.867314 1.60125,5.852656 1.94821,14.699711 0.73951,18.855983 -5.87317,20.195373 -26.29032,41.760509 -43.67686,46.132649 -2.95067,0.74199 -15.97804,1.48091 -33.61755,1.90681 -15.84,0.38244 -30.312,0.83432 -32.16,1.00418 -1.848,0.16985 -4.08187,0.34207 -4.96416,0.38271 -2.19809,0.10125 -2.53027,5.5522 -3.60242,59.11389 -0.48618,24.288 -1.13088,51.072 -1.43267,59.52 -0.30179,8.448 -0.76905,34.152 -1.03836,57.12 -0.26932,22.968 -0.65481,44.676 -0.85666,48.24 -0.20185,3.564 -0.0827,6.48 0.2649,6.48 0.34755,0 2.25456,-1.33753 4.2378,-2.97228 1.98324,-1.63476 5.69514,-4.71841 6.41192,-4.44335 1.0909,0.41862 -0.40606,2.05286 -1.46708,-0.0966 -0.69713,-1.41231 -1.36299,-3.64782 -1.47971,-4.96782 -0.56529,-6.39346 -0.0488,-7.35284 7.04641,-13.08891 3.828,-3.09472 7.176,-5.84967 7.44,-6.12212 1.21265,-1.25147 11.02673,-8.99881 20.64,-16.29346 5.808,-4.40715 10.776,-8.29754 11.04,-8.64529 0.53434,-0.70386 14.78963,-11.75464 19.526,-15.13666 1.6687,-1.19154 3.78547,-2.80344 4.70394,-3.58199 3.26558,-2.7681 14.92886,-11.05157 15.56084,-11.05157 0.3534,0 5.56736,1.30432 5.18757,1.96432 -0.40121,0.69719 -5.55996,0.10048 -5.05223,-0.36432 0.48065,-0.44 0.88434,-1.304 0.89707,-1.92 0.0128,-0.616 0.73458,-1.06569 1.60409,-0.99932 0.88357,0.0675 -10.76005,8.8608 -11.01246,8.20301 -0.54379,-1.41709 23.12291,-18.40523 25.77215,-18.4001 6.06089,0.0117 16.72179,11.41987 16.72948,17.90208 0.003,2.61478 -1.39787,4.32548 -10.31641,12.59725 -5.676,5.26437 -12.48,11.37942 -15.12,13.58902 -2.64,2.2096 -6.49646,5.61284 -8.56989,7.56275 -2.07345,1.94993 -4.95805,4.43223 -6.41023,5.51623 -1.45218,1.084 -4.93973,3.9737 -7.7501,6.42154 -6.17753,5.38064 -12.42554,10.61327 -18.06302,15.12754 -2.30782,1.848 -7.24943,5.84626 -10.98139,8.88501 -3.73196,3.03876 -14.71317,11.42713 -12.60402,9.38059 0.52763,-0.51196 7.42179,-7.59232 7.71572,-7.11671 0.5187,0.83927 -14.06909,12.82337 -15.53681,12.82337 -0.40185,0 1.81877,-7.17846 3.37533,-7.17657 l 3.54441,0.004 -2.13737,1.8083 c -1.17554,0.99456 -1.91017,2.17591 -1.63248,2.62521 0.76839,1.24328 -5.47371,4.67884 -8.5084,4.6829 -1.47303,0.002 -4.33255,-0.84037 -6.35448,-1.87188 l -3.67624,-1.87549 -2.21286,2.35549 c -1.21709,1.29551 -9.67772,9.35007 -10.21247,9.35007 -0.53473,0 7.31912,-8.31398 8.86407,-9.92657 1.71953,-1.7948 3.70421,-5.2074 4.7399,-4.93655 0.93056,0.24335 1.21086,2.49772 0.91497,2.01899 -1.05287,-1.70359 -2.00811,-0.29965 -5.75146,3.62738 -2.08716,2.18958 -4.2132,3.15927 -3.5532,2.78654 2.33733,-1.32001 1.14358,0.59376 -3.29375,5.28043 -2.47156,2.61043 -4.73956,4.3485 -5.04,3.86238 -0.30043,-0.48612 -0.54625,1.88289 -0.54625,5.26447 0,3.38158 0.13662,5.73849 0.30358,5.23758 0.16697,-0.50092 1.46297,0.0985 2.88,1.33202 2.85889,2.48866 14.77868,12.45422 21.67507,18.12147 2.45142,2.0145 8.42255,7.34768 8.16116,7.77061 -0.26138,0.42293 -1.77935,-1.88723 -1.11638,-0.49744 l 0.73657,1.54409 -1.82879,-2.16 c -2.88348,-3.4057 -0.66696,-2.54129 4.27393,1.62493 3.4565,2.91457 6.0907,3.02778 7.85647,2.57237 2.13826,-0.55147 1.12227,0.15442 -0.20507,1.87623 -1.40183,1.81843 -3.74864,2.56664 -1.63774,0.76564 2.19595,-1.87357 0.15016,0.86069 -1.56826,1.92273 -1.87911,1.16135 4.18513,-5.72305 6.16201,-7.10995 1.1069,-0.77656 4.37001,-3.2255 7.25133,-5.44209 2.88134,-2.21661 11.85582,-6.78018 12.57693,-6.50347 0.7211,0.27672 -3.9527,1.8294 -2.62545,0.95975 2.66624,-1.74698 5.26857,-0.3767 8.40202,3.08572 0.98866,1.09246 -3.51066,-1.25407 -3.05322,-1.53678 0.45743,-0.28271 4.81243,2.72476 4.81243,3.28399 0,0.55916 0.0235,-0.0278 0.53019,0.41527 1.97477,1.7269 7.12577,5.82214 7.51194,6.30828 2.04554,2.57513 -3.21169,-2.45524 -1.37045,-1.05087 1.84123,1.40438 3.09811,2.95726 2.79306,3.45084 -0.30506,0.49359 -2.21552,-2.05636 -1.42356,-2.05636 0.792,0 7.11268,8.42121 7.48942,9.03079 0.45034,0.72867 2.1085,6.74829 1.22205,6.28839 -0.74158,-0.38474 -5.60665,-11.04214 -4.62578,-10.24323 2.13441,1.73854 15.50448,19.42831 17.25869,22.83784 0.67913,1.32 1.4992,2.616 1.82236,2.88 0.32318,0.264 1.30792,1.776 2.18832,3.36 0.88041,1.584 2.51958,4.392 3.64261,6.24 4.80121,7.90064 10.51291,21.31574 11.34456,22.9038 0.57249,1.09318 0.40717,2.29315 0.87212,2.58051 2.14647,1.32659 4.08419,13.99982 4.57194,29.82149 0.49607,16.09165 0.0131,17.6542 -5.45598,17.6542 -4.13294,0 -4.40251,-1.75663 -0.32239,-2.10085 2.14829,-0.18124 3.69854,-0.86672 3.93318,-1.73915 0.30437,-1.13168 0.90813,1.8095 0.20843,2.80417 -1.11097,1.57934 -15.09969,1.89283 -21.33584,0.47813 -7.20371,-1.63418 -17.02848,-8.01222 -26.63146,-12.64745 -9.1505,-4.41682 -26.59932,-15.69708 -31.91891,-20.63485 -1.56428,-1.452 -3.05921,-2.64 -3.32208,-2.64 -1.13949,0 -18.74707,-14.85717 -26.31553,-22.20488 -9.0123,-8.74943 -12.36348,-13.07305 -12.36348,-15.95112 0,-1.86227 7.08865,-9.10558 17.52,-17.90224 3.036,-2.56023 5.51686,-5.14249 5.51303,-5.73835 -0.004,-0.59586 -4.5367,-5.18739 -10.07303,-10.20339 -5.53633,-5.016 -10.06919,-9.39273 -10.07303,-9.72606 -0.004,-0.33333 -1.59291,-1.81571 -3.53128,-3.29417 -1.93836,-1.47847 -3.20519,-2.17179 -2.81517,-1.54072 0.39003,0.63107 -0.019,5.05952 0.17309,8.08825 0.19212,3.02872 0.75986,3.58509 0.37993,2.62326 -0.75575,-1.91313 -0.23478,11.70778 0.89826,28.32944 0.39592,5.808 0.82073,23.92895 0.94404,40.26878 0.12331,16.33984 0.46917,30.10517 0.76859,30.58964 0.29942,0.48447 0.9287,9.57951 1.3984,20.21121 1.62597,36.80413 4.32397,58.59956 8.61153,69.56713 0.59631,1.52534 0.39896,3.81539 -0.62045,7.2 -1.337,4.43904 -4.74131,24.62969 -5.85463,34.72324 -0.23296,2.112 -0.7027,5.352 -1.04389,7.2 l -2.62297,21.52424 -3.61838,-19.095 c -0.34929,-1.84327 4.42308,-0.60524 4.39602,5.73076 -0.0435,10.17192 -0.99683,22.5873 -2.65385,34.56 -0.2923,2.112 -0.98376,9.672 -1.53657,16.8 -1.15051,14.8348 -4.24146,46.07668 -5.88868,59.52 -0.61462,5.016 -1.46109,12.144 -1.88106,15.84 -0.41996,3.696 -1.72215,10.7879 -2.28711,15.5399 -0.56495,4.752 -1.42495,11.49514 -1.73243,14.13514 -0.30747,2.64 -0.66195,4.15565 -0.78343,4.83696 -0.19623,1.10054 -1.25798,7.59542 -1.57179,9.71132 -0.38485,2.59493 -2.66078,2.78723 -3.0187,4.06808 -0.73779,2.64015 0.0785,0.99636 -0.49839,-0.93157 z m 2.02656,-7.29232 c 0.0187,-0.49692 0.21375,3.56239 -0.56146,4.58729 -0.7752,1.02491 -1.02052,-1.7668 -1.0186,-0.9748 0.004,1.51129 1.51945,-2.00268 1.58006,-3.61249 z m 1.87118,-9.10751 c -0.26632,-0.66 0.29951,0.0377 0.29951,1.35765 0,1.32 -0.56583,1.70235 -0.29951,1.04235 0.26631,-0.66 0.26631,-1.74 0,-2.4 z m -3.81052,-1.42173 c -0.2434,-0.93405 1.86606,-0.39276 1.8465,1.19124 -0.0196,1.584 -2.14504,2.33871 -1.88207,1.68876 0.26296,-0.64995 0.27897,-1.94595 0.0356,-2.88 z m 5.75051,-9.07827 c -0.30645,-0.76582 0.52389,-0.49143 0.47783,0.62692 -0.0417,1.012 -0.87261,1.53208 -0.55361,1.21308 0.319,-0.31899 0.3531,-1.147 0.0758,-1.84 z m 0.94001,-5.82 c -0.26632,-0.66 0.76811,0.0635 0.76811,1.38346 0,1.32 -1.03443,1.67654 -0.76811,1.01654 0.26631,-0.66 0.26631,-1.74 0,-2.4 z m -8.64,-3.84 c -0.26632,-0.66 1.53295,-0.28325 1.53295,1.03675 0,1.32 -1.79927,2.02325 -1.53295,1.36325 0.26631,-0.66 0.26631,-1.74 0,-2.4 z m -0.91682,-12.46881 c -0.22962,-1.19415 2.59727,-0.52194 2.58661,1.59006 -0.0107,2.112 -2.84626,3.16779 -2.60599,2.24994 0.24028,-0.91784 0.249,-2.64584 0.0194,-3.84 z m 11.50278,-0.49119 c -0.24146,-0.924 0.27383,-0.25899 0.27383,1.58901 0,1.848 -0.51529,2.69499 -0.27383,1.77099 0.24146,-0.924 0.24146,-2.436 0,-3.36 z m -12.46425,-12.96 c -0.22882,-1.188 2.06206,0.38835 2.06206,2.76435 0,2.376 -2.29088,2.74365 -2.06206,1.55565 0.22882,-1.188 0.22882,-3.132 0,-4.32 z m 13.42425,1.44 c -0.24146,-0.924 0.67538,0.12401 0.67538,1.97201 0,1.848 -0.91684,2.31199 -0.67538,1.38799 0.24146,-0.924 0.24146,-2.436 0,-3.36 z m 0.93404,-6.24 c -0.26632,-0.66 0.67458,0.26512 0.67458,1.58512 0,1.32 -0.9409,1.47488 -0.67458,0.81488 0.26631,-0.66 0.26631,-1.74 0,-2.4 z m -15.30819,-9.12 c -0.21996,-1.452 3.85543,-0.0546 3.85543,2.84944 0,2.904 -4.07539,3.88256 -3.85543,2.43056 0.21996,-1.452 0.21996,-3.828 0,-5.28 z m 16.28818,-0.42 c -0.30645,-0.76582 0.50775,-0.17906 0.46169,0.93929 -0.0417,1.012 -0.85647,1.21971 -0.53747,0.90071 0.319,-0.31899 0.3531,-1.147 0.0757,-1.84 z m 0.96,-5.76 c -0.30645,-0.76582 0.82695,-0.34695 0.78089,0.7714 -0.0417,1.012 -1.17567,1.3876 -0.85667,1.0686 0.319,-0.31899 0.3531,-1.147 0.0757,-1.84 z m 0.96,-10.56 c -0.30645,-0.76582 0.71201,-0.65999 0.66595,0.45836 -0.0417,1.012 -1.06073,1.70064 -0.74173,1.38164 0.319,-0.31899 0.3531,-1.147 0.0758,-1.84 z m -19.19403,-7.26 c -0.24146,-0.924 3.07457,0.0923 3.07457,1.94033 0,1.848 -3.31603,2.34367 -3.07457,1.41967 0.24146,-0.924 0.24146,-2.436 0,-3.36 z m 20.16,-6.72 c -0.24146,-0.924 0.47046,-0.57266 0.47046,1.27534 0,1.848 -0.71192,3.00866 -0.47046,2.08466 0.24146,-0.924 0.24146,-2.436 0,-3.36 z m -21.10278,-8.14881 c -0.22962,-1.19415 3.08778,0.72962 3.07712,2.84162 -0.0107,2.112 -3.33677,1.91623 -3.0965,0.99838 0.24028,-0.91784 0.249,-2.64584 0.0194,-3.84 z m 22.06278,-0.49119 c -0.24146,-0.924 0.7638,-0.6302 0.7638,1.2178 0,1.848 -1.00526,3.0662 -0.7638,2.1422 0.24146,-0.924 0.24146,-2.436 0,-3.36 z m 0.96,-12.48 c -0.24146,-0.924 0.5694,-0.39133 0.5694,1.45667 0,1.848 -0.81086,2.82733 -0.5694,1.90333 0.24146,-0.924 0.24146,-2.436 0,-3.36 z m 0.93404,-8.16 c -0.26632,-0.66 0.32605,-0.45265 0.32605,0.86735 0,1.32 -0.59237,2.19265 -0.32605,1.53265 0.26631,-0.66 0.26631,-1.74 0,-2.4 z m -24.90819,-8.16 c -0.21996,-1.452 3.95391,0.18403 3.95391,3.08803 0,2.904 -4.17387,3.64397 -3.95391,2.19197 0.21996,-1.452 0.21996,-3.828 0,-5.28 z m 25.91137,-2.38881 c -0.22962,-1.19415 0.61915,-0.766 0.60849,1.346 -0.0107,2.112 -0.86814,3.41185 -0.62787,2.494 0.24028,-0.91784 0.249,-2.64584 0.0194,-3.84 z m 0.96,-10.56 c -0.22962,-1.19415 1.00773,-0.49265 0.99707,1.61935 -0.0107,2.112 -1.25672,3.1385 -1.01645,2.22065 0.24028,-0.91784 0.249,-2.64584 0.0194,-3.84 z m -27.84,-2.88 c -0.22962,-1.19415 3.95212,-0.76766 3.94146,1.34434 -0.0107,2.112 -4.20111,3.41351 -3.96084,2.49566 0.24028,-0.91784 0.249,-2.64584 0.0194,-3.84 z m 28.75682,-4.81119 c -0.26632,-0.66 0.43665,-0.12411 0.43665,1.19589 0,1.32 -0.70297,1.86411 -0.43665,1.20411 0.26631,-0.66 0.26631,-1.74 0,-2.4 z m 0.97999,-6.66 c -0.30645,-0.76582 -0.53393,-0.53835 -0.57999,0.58 -0.0417,1.012 0.18521,1.579 0.50421,1.26 0.319,-0.31899 0.3531,-1.147 0.0758,-1.84 z m -30.68004,-9.64281 c -0.21366,-1.72545 3.72559,-1.15808 3.7202,2.00992 -0.006,3.168 -3.94905,5.19263 -3.72999,3.75008 0.21904,-1.44254 0.22345,-4.03454 0.01,-5.76 z m -0.99399,-12.97719 c -0.24146,-0.924 4.13958,-0.61425 4.13958,1.23375 0,1.848 -4.38104,3.05025 -4.13958,2.12625 0.24146,-0.924 0.24146,-2.436 0,-3.36 z m 34.56,-3.84 c -0.24146,-0.924 0.52506,-0.60047 0.52506,1.24753 0,1.848 -0.76652,3.03647 -0.52506,2.11247 0.24146,-0.924 0.24146,-2.436 0,-3.36 z m 0.93404,-6.24 c -0.26632,-0.66 0.56049,-0.32525 0.56049,0.99475 0,1.32 -0.82681,2.06525 -0.56049,1.40525 0.26631,-0.66 0.26631,-1.74 0,-2.4 z m 0.97999,-6.66 c -0.30645,-0.76582 0.60322,-0.24395 0.55716,0.8744 -0.0417,1.012 -0.95194,1.2846 -0.63294,0.9656 0.319,-0.31899 0.3531,-1.147 0.0757,-1.84 z m -38.41999,-2.94 c -0.26632,-0.66 4.14876,0.0731 4.14876,1.39309 0,1.32 -4.41508,1.66691 -4.14876,1.00691 0.26631,-0.66 0.26631,-1.74 0,-2.4 z m -0.94001,-5.7 c -0.30645,-0.76582 4.29533,-0.54673 4.24927,0.57162 -0.0417,1.012 -4.64405,1.58738 -4.32505,1.26838 0.319,-0.31899 0.3531,-1.147 0.0758,-1.84 z m 43.18001,-9.66 c -0.26632,-0.66 0.0292,-0.73607 0.0292,0.58393 0,1.32 -0.29555,2.47607 -0.0292,1.81607 0.26631,-0.66 0.26631,-1.74 0,-2.4 z m -43.17052,-3.34173 c -0.2434,-0.93405 3.99777,-0.20085 3.97821,1.38315 -0.0196,1.584 -4.27675,2.1468 -4.01378,1.49685 0.26296,-0.64995 0.27897,-1.94595 0.0356,-2.88 z m 0.95648,-6.73827 c -0.24146,-0.924 5.45753,-0.2429 5.45753,1.6051 0,1.848 -5.69899,2.6789 -5.45753,1.7549 0.24146,-0.924 0.24146,-2.436 0,-3.36 z m 36.0781,-3.47046 c -0.77897,-0.27129 1.7537,0.1463 2.69594,0.75046 2.05134,1.31532 0.18521,1.579 0.50421,1.26 0.319,-0.319 1.10851,-0.50989 -1.15357,-1.29769 z m 1.35593,-8.46954 c -0.30645,-0.76582 0.35435,-0.25616 0.30829,0.86219 -0.0417,1.012 -0.70307,1.29681 -0.38407,0.97781 0.319,-0.31899 0.3531,-1.147 0.0757,-1.84 z m -35.49681,-7.72881 c -0.22962,-1.19415 4.99763,-0.33384 4.98697,1.77816 -0.0107,2.112 -5.24662,2.97969 -5.00635,2.06184 0.24028,-0.91784 0.249,-2.64584 0.0194,-3.84 z m 34.56,-0.96 c -0.22962,-1.19415 0.25249,-0.0397 0.24183,2.07231 -0.0107,2.112 -0.50148,2.68554 -0.26121,1.76769 0.24028,-0.91784 0.249,-2.64584 0.0194,-3.84 z m -33.61722,-8.17119 c -0.24146,-0.924 3.01309,-0.59094 3.01309,1.25706 0,1.848 -3.25455,3.02694 -3.01309,2.10294 0.24146,-0.924 0.24146,-2.436 0,-3.36 z m 32.61404,-6.24 c -0.26632,-0.66 0.33825,-0.2772 0.33825,1.0428 0,1.32 -0.60457,2.0172 -0.33825,1.3572 0.26631,-0.66 0.26631,-1.74 0,-2.4 z m -0.93404,-6.24 c -0.24146,-0.924 0.50691,-0.1134 0.50691,1.7346 0,1.848 -0.74837,2.5494 -0.50691,1.6254 0.24146,-0.924 0.24146,-2.436 0,-3.36 z m -30.72,-2.88 c -0.24146,-0.924 3.23369,-0.46072 3.23369,1.38728 0,1.848 -3.47515,2.89672 -3.23369,1.97272 0.24146,-0.924 0.24146,-2.436 0,-3.36 z m 0.99399,-15.82281 c -0.21366,-1.72545 5.39713,0.48697 5.39174,3.65497 -0.006,3.168 -5.62059,3.54758 -5.40153,2.10503 0.21904,-1.44254 0.22345,-4.03454 0.01,-5.76 z m 28.79313,-1.44399 c -0.22065,-1.45926 0.57429,0.0596 0.56708,2.69955 -0.007,2.64 -0.80804,3.28119 -0.58018,2.10045 0.22787,-1.18074 0.23377,-3.34074 0.0131,-4.8 z m -0.96,-13.44 c -0.22065,-1.45926 0.71092,-0.0306 0.70371,2.60936 -0.007,2.64 -0.94467,3.37138 -0.71681,2.19064 0.22787,-1.18074 0.23377,-3.34074 0.0131,-4.8 z m -149.74887,2.0468 c -0.319,-0.319 -1.14701,-0.3531 -1.84,-0.0757 -0.76582,0.30645 0.83393,-3.80396 1.95228,-3.7579 1.01199,0.0417 0.20672,4.15268 -0.11228,3.83369 z m 4.34,-0.0558 c -0.66,-0.26631 -1.74,-0.26631 -2.4,0 -0.66,0.26632 1.07756,-6.31496 2.39756,-6.31496 1.32,0 0.66244,6.58128 0.002,6.31496 z m -10.16421,-4.40422 c -0.26632,-0.66 5.04218,-1.51094 5.04218,-0.19094 0,1.32 -5.3085,3.25094 -5.04218,2.59094 0.26631,-0.66 0.26631,-1.74 0,-2.4 z m 20.22421,2.54 c -0.319,-0.319 -1.14701,-0.3531 -1.84,-0.0757 -0.76582,0.30645 0.73031,-4.62878 1.84866,-4.58272 1.01199,0.0417 0.31034,4.9775 -0.009,4.65851 z m 108.47446,-9.26 c -0.21295,-1.716 4.03409,-1.70968 4.03409,1.72232 0,3.432 -4.24704,6.23368 -4.03409,4.51768 0.21295,-1.716 0.21295,-4.524 0,-6.24 z m -129.61549,-4.78881 c -0.22962,-1.19415 5.58358,-1.61875 5.57292,0.49325 -0.0107,2.112 -5.83257,4.2646 -5.5923,3.34675 0.24028,-0.91784 0.249,-2.64584 0.0194,-3.84 z M 460.1576,496.8415 c -0.19776,-2.508 0.59696,-0.24877 0.59696,4.76723 0,5.016 -0.79472,6.86077 -0.59696,4.35277 0.19776,-2.508 0.19776,-6.612 0,-9.12 z m -24.98667,1.45119 c -0.22962,-1.19415 4.36084,0.29434 4.35018,2.40634 -0.0107,2.112 -4.60983,2.35151 -4.36956,1.43366 0.24028,-0.91784 0.249,-2.64584 0.0194,-3.84 z m -129.6137,-1.43292 c -0.2434,-0.93405 4.4909,-1.5013 4.47134,0.0827 -0.0196,1.584 -4.76988,3.44725 -4.50691,2.7973 0.26296,-0.64995 0.27897,-1.94595 0.0356,-2.88 z m 210.53473,2.25927 c 0,-0.19934 -0.756,-0.95534 -1.68,-1.68 -1.52262,-1.19411 3.65745,-3.50571 4.85156,-1.98309 1.25412,1.59912 -3.17156,4.45321 -3.17156,3.66309 z m 67.85578,-3.65754 c 0.70738,-0.42428 -0.53393,-0.53835 -0.57999,0.58 -0.0417,1.012 0.18521,1.579 0.50421,1.26 0.319,-0.31899 -4.97496,1.18937 -4.33485,0.80544 z m -211.22386,-2.71958 c 1.19411,-1.52262 7.3707,-0.33699 5.84808,0.85712 -0.924,0.72466 -1.68,1.48066 -1.68,1.68 0,0.79012 -5.4222,-0.938 -4.16808,-2.53712 z m -66.20665,-3.56215 c -0.2434,-0.93405 4.4893,-0.92903 4.46974,0.65497 -0.0196,1.584 -4.76828,2.87498 -4.50531,2.22503 0.26296,-0.64995 0.27897,-1.94595 0.0356,-2.88 z m 72.24822,-0.32861 c 1.19411,-1.52262 5.16913,0.67377 3.64651,1.86788 -1.59912,1.25412 -2.10766,2.04246 -1.31754,2.04246 0.19934,0 -3.05363,-2.98634 -2.32897,-3.91034 z m 5.28224,-1.7849 c 1.19411,-1.52262 3.72689,-0.42133 2.20427,0.77278 -0.924,0.72466 -1.68,1.48066 -1.68,1.68 0,0.79012 -1.77839,-0.85366 -0.52427,-2.45278 z m 117.64427,1.49278 c 0,-0.19934 -0.756,-0.95534 -1.68,-1.68 -1.52262,-1.19411 5.09526,-5.00097 6.28937,-3.47835 1.25412,1.59912 -4.60937,5.94847 -4.60937,5.15835 z m -115.96641,-6.50629 c 1.19411,-1.52262 5.88903,1.71218 4.36641,2.90629 -1.59912,1.25412 -2.10766,2.04246 -1.31754,2.04246 0.19934,0 -3.77353,-4.02475 -3.04887,-4.94875 z m 4.57376,-4.59332 c 0.95567,-1.056 5.87423,2.82207 5.61023,2.82207 -0.264,0 -1.26191,0.864 -2.21758,1.92 -0.95567,1.056 -1.52158,1.92 -1.25758,1.92 0.264,0 -3.09074,-5.60607 -2.13507,-6.66207 z m 105.63265,6.29961 c 0,-0.19934 -0.756,-0.95534 -1.68,-1.68 -1.52262,-1.19411 2.66586,-4.30856 3.85997,-2.78594 1.25412,1.59912 -2.17997,5.25606 -2.17997,4.46594 z m -4.8,-3.84 c 0,-0.19934 -0.756,-0.95534 -1.68,-1.68 -1.52262,-1.19411 2.78261,-2.54997 3.97672,-1.02735 1.25412,1.59912 -2.29672,3.49747 -2.29672,2.70735 z m -94.06164,-5.07042 c 1.19411,-1.52262 5.10426,0.27631 3.58164,1.47042 -1.59912,1.25412 -2.10766,2.04246 -1.31754,2.04246 0.19934,0 -2.98876,-2.58888 -2.2641,-3.51288 z m 176.54563,1.13039 c -0.31266,-0.81478 4.43292,-2.29443 4.18128,-2.04278 -0.25164,0.25164 -0.17278,0.91828 0.17525,1.4814 0.94661,1.53164 -3.70739,2.253 -4.35653,0.56138 z m -88.24399,-0.78919 c 0,-0.16042 -1.62,-1.78042 -3.6,-3.6 l -3.6,-3.30832 6.60745,0.36573 c 4.54387,0.25152 0.59255,7.27567 0.59255,6.54259 z m -173.3937,-2.15818 c 0.32783,-0.85432 0.16689,-1.23967 -0.37729,-0.90334 -0.52196,0.32258 5.53908,1.03533 5.53908,1.53217 0,1.38089 -5.79999,1.03429 -5.16179,-0.62883 z m 93.07921,-7.13402 c 2.6003,-2.64 9.46632,-1.93612 9.20232,-1.93612 -0.264,0 -2.60753,2.16 -5.20783,4.8 -2.60031,2.64 -4.51183,4.8 -4.24783,4.8 0.264,0 -2.34697,-5.02388 0.25334,-7.66388 z m 31.08209,-2.65612 c -0.21996,-1.452 4.48982,-0.95891 4.48982,1.94509 0,2.904 -4.70978,4.78691 -4.48982,3.33491 0.21996,-1.452 0.21996,-3.828 0,-5.28 z m -119.91301,0.2146 c -0.29557,-0.29558 4.03827,2.40166 3.67776,3.34844 -0.52098,1.36819 -5.28134,-0.68599 -4.33323,-1.62704 0.65609,-0.6512 0.95105,-1.42583 0.65547,-1.7214 z m 102.39247,-9.37465 5.79294,-0.19995 -3.12,2.81961 c -2.90828,2.62827 -3.56127,3.42039 -2.81961,3.42039 0.16522,0 -2.16487,-5.96026 0.14667,-6.04005 z m 0.002,-1.19624 c -0.23967,-0.71899 6.35195,-2.77877 6.01248,-1.48066 -0.41757,1.59681 -2.38499,2.00928 -1.6726,1.29689 0.55786,-0.55786 -4.10902,0.87635 -4.33988,0.18377 z m 139.74099,-2.70536 c -0.56515,-1.056 4.48597,-4.45835 4.22197,-4.45835 -0.264,0 -0.0176,0.864 0.54756,1.92 0.56515,1.056 1.24355,1.92 1.50755,1.92 0.264,0 -5.71193,1.67435 -6.27708,0.61835 z m -88.77008,-4.69835 2.81961,-3.12 2.05054,5.89468 c 1.2879,3.70233 -8.73181,0.34532 -7.99015,0.34532 0.16522,0 1.56922,-1.404 3.12,-3.12 z m -48.61305,-1.29688 c -1.28004,-1.37329 -4.91934,-4.67497 -8.08734,-7.33705 -4.34482,-3.65098 -3.14554,-3.85873 2.64755,1.64213 7.71856,7.32921 9.76971,10.34027 5.43979,5.69492 z m 16.1383,-12.62312 c -0.19776,-2.508 4.10698,-0.12256 4.10698,4.89344 0,5.016 -4.30474,6.73456 -4.10698,4.22656 0.19776,-2.508 0.19776,-6.612 0,-9.12 z m 118.4269,12.7325 c -4.68395,3.52567 -1.53793,-3.11329 -2.46193,-3.83795 -1.52262,-1.19411 2.01282,-4.65717 3.20693,-3.13455 1.25412,1.59912 -0.11372,6.49733 -0.745,6.9725 z m -75.45254,-8.1725 c 0.95567,-1.056 1.52158,-1.92 1.25758,-1.92 -0.264,0 2.49571,3.01314 1.54004,4.06914 -0.95567,1.056 -5.2792,-0.22914 -5.0152,-0.22914 0.264,0 1.26191,-0.864 2.21758,-1.92 z m -81.53437,-7.31129 c 0.32783,-0.85432 5.74756,-3.09824 5.20338,-2.76191 -0.52196,0.32258 -0.94901,0.99302 -0.94901,1.48986 0,1.38089 -4.89257,2.93517 -4.25437,1.27205 z m 89.69437,-1.61388 c 0,-0.15684 -1.836,-1.99284 -4.08,-4.08 l -4.08,-3.79483 7.06038,2.55836 c 4.87191,1.76536 1.09962,6.04279 1.09962,5.31647 z m 60.48,-1.96604 c 0,-0.18217 -3.4548,3.72968 -3.6282,2.18276 l -0.6918,-6.17155 1.82879,2.16 c 1.71861,2.02986 2.49121,2.59703 2.49121,1.82879 z m -144.42538,-2.65055 c 1.19411,-1.52262 4.588,-1.21481 3.06538,-0.0207 -1.59912,1.25412 -2.10766,2.04246 -1.31754,2.04246 0.19934,0 -2.4725,-1.09776 -1.74784,-2.02176 z m -57.65462,-4.69824 c 0.95567,-1.056 1.52158,-1.92 1.25758,-1.92 -0.264,0 3.10868,3.94369 2.15301,4.99969 -0.95567,1.056 -5.89217,-1.15969 -5.62817,-1.15969 0.264,0 1.26191,-0.864 2.21758,-1.92 z m 151.2,-0.36246 c 0,-0.19934 0.0667,2.75662 -0.85726,2.03196 -1.52262,-1.19411 -2.37931,-4.87212 -1.1852,-3.3495 1.25412,1.59912 2.04246,2.10766 2.04246,1.31754 z M 392.82317,413.8015 c 1.81404,-2.14258 4.19922,-1.11838 2.29472,0.46124 -1.056,0.87586 0.66504,6.1663 -0.65496,6.40654 l -8.45096,-4.96924 2.49121,0.13073 c 1.52039,0.0798 3.20389,-0.71103 4.32,-2.02927 z m -42.33121,-0.72 c 0.95567,-1.056 1.52158,-1.92 1.25758,-1.92 -0.264,0 3.36142,3.032 2.40575,4.088 -0.95567,1.056 -6.14491,-0.248 -5.88091,-0.248 0.264,0 1.26191,-0.864 2.21758,-1.92 z m 123.36,0.66832 c 0,-0.16042 -1.62,-1.78042 -3.6,-3.6 l -3.6,-3.30832 4.14417,2.49595 c 3.89838,2.3479 3.05583,5.14545 3.05583,4.41237 z m -98.82462,2.23615 c -1.51229,-1.57849 3.25525,-8.4551 3.02384,-8.22369 -0.39994,0.39994 4.61819,5.2251 5.50038,5.28888 0.23079,0.0167 -7.01192,4.5133 -8.52422,2.93481 z m 62.38422,-20.52887 c -0.69281,-0.6928 -1.36791,-0.62857 -2.1996,0.20928 -0.96216,0.96927 -0.84212,-2.35212 0.50491,-2.86493 1.51784,-0.57785 9.10258,3.79837 5.98593,11.29391 l -3.93602,9.46614 0.32218,-8.5524 c 0.19181,-5.09152 -0.0823,-8.9569 -0.6774,-9.552 z m -39.3996,14.2644 c 1.24008,-1.32 2.03868,-2.4 1.77468,-2.4 -0.264,0 0.72346,3.53357 -0.51662,4.85357 -1.24008,1.32 -4.25675,-0.0536 -3.99275,-0.0536 0.264,0 1.49461,-1.08 2.73469,-2.4 z m 21.48877,-1.39136 c 0.95567,-1.056 3.55281,-0.0486 3.28881,-0.0486 -0.264,0 -1.26191,0.864 -2.21758,1.92 -0.95567,1.056 -1.52158,1.92 -1.25758,1.92 0.264,0 -0.76932,-2.73536 0.18635,-3.79136 z m -64.56631,-0.76864 c 1.19411,-1.52262 5.76623,2.5895 4.24361,3.78361 -1.59912,1.25412 -6.71373,-2.10361 -5.92361,-2.10361 0.19934,0 0.95534,-0.756 1.68,-1.68 z m 21.50517,-1.1553 c -0.31114,-0.50342 -1.95663,-1.84052 -3.65666,-2.97136 -3.07777,-2.04727 -2.05622,-2.45219 1.28944,0.48076 3.54567,3.1083 3.29328,3.98901 2.36722,2.4906 z m 48.32865,-5.0533 c 0.95567,-1.056 4.0453,1.1686 3.7813,1.1686 -0.264,0 -1.26191,0.864 -2.21758,1.92 -0.95567,1.056 -1.52158,1.92 -1.25758,1.92 0.264,0 -1.26181,-3.9526 -0.30614,-5.0086 z m -65.15628,1.6486 c 1.24008,-1.32 2.03868,-2.4 1.77468,-2.4 -0.264,0 3.00921,4.35395 1.76913,5.67395 -1.24008,1.32 -6.5425,-0.87395 -6.2785,-0.87395 0.264,0 1.49461,-1.08 2.73469,-2.4 z m 47.16246,-0.24 c 1.19411,-1.52262 4.4774,1.22471 2.95478,2.41882 -1.59912,1.25412 -5.4249,-0.73882 -4.63478,-0.73882 0.19934,0 0.95534,-0.756 1.68,-1.68 z m 56.51754,1.31754 c -0.30343,0.99695 -0.97068,-0.10894 -1.68,-1.68 -0.79625,-1.76359 -0.42248,-2.26987 0.77163,-0.74725 1.25412,1.59912 1.13843,1.67136 0.90837,2.42725 z m 18.24,0 c 0.11893,0.15997 -5.70341,4.44139 -3.34256,-1.059 0.7632,-1.77814 0.10598,-1.78115 1.3001,-0.25854 1.25412,1.59912 1.15931,0.12963 2.04246,1.31754 z m -112.32,-2.88 c 0,-0.19934 -2.50107,4.87295 -3.42507,4.14829 -1.52262,-1.19411 0.1885,-6.98845 1.38261,-5.46583 1.25412,1.59912 2.04246,2.10766 2.04246,1.31754 z m 59.46531,-4.87308 c 0.95567,-1.056 4.93627,1.39554 4.67227,1.39554 -0.264,0 -1.26191,0.864 -2.21758,1.92 -0.95567,1.056 -1.52158,1.92 -1.25758,1.92 0.264,0 -2.15278,-4.17954 -1.19711,-5.23554 z m 48.46893,5.60865 c 0,-0.16522 -3.05341,-0.28233 -3.94386,-2.41697 l -1.75038,-4.19614 2.8196,3.12 c 2.62827,2.90828 2.87464,4.23476 2.87464,3.49311 z m -60.41424,-7.09311 c 0.95567,-1.056 1.52158,-1.92 1.25758,-1.92 -0.264,0 2.27255,3.20036 1.31688,4.25636 -0.95567,1.056 -5.05604,-0.41636 -4.79204,-0.41636 0.264,0 1.26191,-0.864 2.21758,-1.92 z m 5.40246,-4.56 c 1.19411,-1.52262 4.9667,2.06205 3.44408,3.25616 -1.59912,1.25412 -5.9142,-1.57616 -5.12408,-1.57616 0.19934,0 0.95534,-0.756 1.68,-1.68 z m 43.07754,0.35754 c 0,-0.19934 0.42937,2.35683 -0.49463,1.63217 -1.52262,-1.19411 -2.74194,-4.47233 -1.54783,-2.94971 1.25412,1.59912 2.04246,2.10766 2.04246,1.31754 z m -3.32945,-22.87055 c 0.95567,-1.056 3.41103,-0.76699 3.14703,-0.76699 -0.264,0 -1.26191,0.864 -2.21758,1.92 -0.95567,1.056 -1.52158,1.92 -1.25758,1.92 0.264,0 -0.62754,-2.01701 0.32813,-3.07301 z m -23.81055,-1.34699 c -0.319,-0.319 -1.14701,-0.3531 -1.84,-0.0757 -0.76582,0.30645 0.098,-1.39785 1.21631,-1.35179 1.01199,0.0417 0.94269,1.74657 0.62369,1.42758 z m -3.58,-0.74246 c 0,-0.19934 -1.90395,2.13308 -2.82795,1.40842 -1.52262,-1.19411 -0.40862,-4.24858 0.78549,-2.72596 1.25412,1.59912 2.04246,2.10766 2.04246,1.31754 z m 4.5528,-18.55761 c -0.18521,-3.58597 4.64352,-1.07343 4.64184,5.79057 -0.002,6.864 -4.83179,9.96746 -4.64489,6.68943 0.18688,-3.27805 0.18826,-8.89405 0.003,-12.48 z m 47.0272,14.50007 c -0.319,-0.319 -1.14701,-0.3531 -1.84,-0.0758 -0.76582,0.30645 0.21158,-2.6424 1.32993,-2.59634 1.01199,0.0417 0.82907,2.99112 0.51007,2.67213 z m -5.02,-1.34 c -0.32633,-0.528 -1.10782,-0.95338 -1.73666,-0.9453 -0.68699,0.009 0.76135,-1.64833 1.62659,-1.08917 1.84427,1.19187 0.84668,3.22634 0.11007,2.03447 z m 5.71524,-2.99935 c 1.7571,-1.40772 5.66774,1.03869 3.40476,2.11643 -2.93859,1.3995 -2.12065,-1.66801 -0.90093,-1.66801 0.51509,0 -3.52874,0.37271 -2.50383,-0.44842 z m -58.99524,2.63689 c 0,-0.19934 -2.76604,2.92012 -3.69004,2.19546 -1.52262,-1.19411 0.45347,-5.03562 1.64758,-3.513 1.25412,1.59912 2.04246,2.10766 2.04246,1.31754 z m 68.81181,-8.91065 c 1.19411,-1.52262 4.47081,0.27654 2.94819,1.47065 -0.924,0.72466 -1.68,1.48066 -1.68,1.68 0,0.79012 -2.52231,-1.55153 -1.26819,-3.15065 z m -77.77602,-1.52689 c -0.26632,-0.66 1.45951,-0.0939 1.45951,1.22606 0,1.32 -1.72583,1.83394 -1.45951,1.17394 0.26631,-0.66 0.26631,-1.74 0,-2.4 z m 51.85999,-2.82 c -0.30645,-0.76582 4.70991,1.89295 4.66385,3.0113 -0.0417,1.012 -5.05863,-0.8523 -4.73963,-1.1713 0.319,-0.31899 0.3531,-1.147 0.0758,-1.84 z m 36.29818,-3.23778 c 1.19411,-1.52262 3.68866,0.18121 2.16604,1.37532 -1.59912,1.25412 -2.10766,2.04246 -1.31754,2.04246 0.19934,0 -1.57316,-2.49378 -0.8485,-3.41778 z m 2.95083,-2.58241 c 1.19411,-1.52262 5.53783,-1.07638 4.01521,0.11773 -0.924,0.72466 -1.68,1.48066 -1.68,1.68 0,0.79012 -3.58933,-0.19861 -2.33521,-1.79773 z m -92.70479,-3.96227 c 0,-0.19934 -2.18238,2.04796 -3.10638,1.3233 -1.52262,-1.19411 -0.13019,-4.16346 1.06392,-2.64084 1.25412,1.59912 2.04246,2.10766 2.04246,1.31754 z m 58.14039,-3.71754 2.81961,-3.12 -0.0444,6.14918 c -0.0283,3.91983 -6.63685,0.0908 -5.89519,0.0908 0.16522,0 1.56922,-1.404 3.12,-3.12 z m -61.98039,0.83754 c 0,-0.19934 -1.72478,3.27051 -2.64878,2.54585 -1.52262,-1.19411 -0.58779,-5.38601 0.60632,-3.86339 1.25412,1.59912 2.04246,2.10766 2.04246,1.31754 z m 45.83078,-18.11754 c -0.18746,-3.3 0.46563,-0.60502 0.46563,5.99498 0,6.6 -0.65309,9.30502 -0.46563,6.00502 0.18746,-3.3 0.18746,-8.7 0,-12 z m 65.16031,12.03101 c 1.19411,-1.52262 4.53153,1.29242 3.00891,2.48653 -0.924,0.72466 -1.68,1.48066 -1.68,1.68 0,0.79012 -2.58303,-2.56741 -1.32891,-4.16653 z m -43.31109,0.68899 c 0.95567,-1.056 1.52158,-1.92 1.25758,-1.92 -0.264,0 1.62218,4.18034 0.66651,5.23634 -0.95567,1.056 -4.40567,-1.39634 -4.14167,-1.39634 0.264,0 1.26191,-0.864 2.21758,-1.92 z m 50.38447,-5.60632 c 1.19411,-1.52262 5.13815,-0.51025 3.61553,0.68386 -0.924,0.72466 -1.68,1.48066 -1.68,1.68 0,0.79012 -3.18965,-0.76474 -1.93553,-2.36386 z m 7.1586,-7.43483 c 1.24008,-1.32 5.45561,0.56115 5.19161,0.56115 -0.264,0 -1.4946,1.08 -2.73468,2.4 -1.24008,1.32 -2.03869,2.4 -1.77469,2.4 0.264,0 -1.92232,-4.04115 -0.68224,-5.36115 z m -146.38669,7.30327 c 0,-0.19934 -0.756,-0.95534 -1.68,-1.68 -1.52262,-1.19411 -0.55295,-5.38474 0.64116,-3.86212 1.25412,1.59912 1.03884,6.33224 1.03884,5.54212 z m 107.68608,-9.38212 c 1.19411,-1.52262 2.12935,2.85351 0.60673,4.04762 -0.924,0.72466 -2.64919,-2.92942 -2.64919,-2.73008 0,0.79012 0.78834,0.28158 2.04246,-1.31754 z m 47.12027,-4.34935 c 1.19411,-1.52262 5.26439,0.075 3.74177,1.26908 -0.924,0.72466 -2.0245,1.31847 -2.0245,1.51781 0,0.79012 -2.97139,-1.18777 -1.71727,-2.78689 z m 5.07642,-3.69804 c 1.19411,-1.52262 5.60347,-1.18918 4.08085,0.005 -0.924,0.72466 -1.68,1.48066 -1.68,1.68 0,0.79012 -3.65497,-0.0858 -2.40085,-1.68493 z m -177.11915,-0.23507 c 0,-0.19934 -3.63699,3.81005 -4.56099,3.08539 -1.52262,-1.19411 1.32442,-5.92555 2.51853,-4.40293 1.25412,1.59912 2.04246,2.10766 2.04246,1.31754 z m -46.08,-0.99687 c 0,-0.21963 -1.836,-1.77254 -4.08,-3.45091 l -4.08,-3.05158 5.6944,1.76811 c 4.97849,1.54582 2.4656,5.45404 2.4656,4.73438 z m 230.577,-6.72843 c 1.24008,-1.32 5.70168,0.40776 5.43768,0.40776 -0.264,0 -1.4946,1.08 -2.73468,2.4 -1.24008,1.32 -2.03869,2.4 -1.77469,2.4 0.264,0 -2.16839,-3.88776 -0.92831,-5.20776 z m -38.097,-0.55224 c 0.95567,-1.056 1.52158,-1.92 1.25758,-1.92 -0.264,0 1.44726,3.58544 0.49159,4.64144 -0.95567,1.056 -4.23075,-0.80144 -3.96675,-0.80144 0.264,0 1.26191,-0.864 2.21758,-1.92 z m -201.12,0.57498 c 0,-0.21175 -2.7,-2.63338 -6,-5.3814 l -6,-4.9964 8.87292,3.25103 c 7.37819,2.70335 3.12708,7.85051 3.12708,7.12677 z m 247.52224,-5.4021 c 1.79115,-1.848 7.03839,-2.85288 6.77439,-2.85288 -0.264,0 -1.94548,1.512 -3.73663,3.36 -1.79115,1.848 -3.04064,3.36 -2.77664,3.36 0.264,0 -2.05227,-2.01912 -0.26112,-3.86712 z m -40.99978,0.26712 c 1.19411,-1.52262 3.09449,2.3234 1.57187,3.51751 -0.924,0.72466 -3.61433,-2.39931 -3.61433,-2.19997 0,0.79012 0.78834,0.28158 2.04246,-1.31754 z m -171.96246,-1.53121 c 0,-0.18217 -5.05604,4.42103 -4.92032,2.87035 l 0.60032,-6.85914 1.82879,2.16 c 1.71861,2.02986 2.49121,2.59703 2.49121,1.82879 z m 175.80246,-1.34879 c 1.19411,-1.52262 2.98404,1.83225 1.46142,3.02636 -0.924,0.72466 -3.50388,-1.90816 -3.50388,-1.70882 0,0.79012 0.78834,0.28158 2.04246,-1.31754 z m 3.84,-2.88 c 1.19411,-1.52262 2.61379,3.06196 1.09117,4.25607 -0.924,0.72466 -3.13363,-3.13787 -3.13363,-2.93853 0,0.79012 0.78834,0.28158 2.04246,-1.31754 z m 40.27752,-4.10932 8.08002,-0.45068 -3.12,2.81961 c -1.716,1.55078 -3.12,2.95478 -3.12,3.12 0,0.74165 -5.7539,-5.27062 -1.84002,-5.48893 z m -32.59752,-1.65068 c 1.19411,-1.52262 2.60766,1.73163 1.08504,2.92574 -0.924,0.72466 -3.1275,-1.80754 -3.1275,-1.6082 0,0.79012 0.78834,0.28158 2.04246,-1.31754 z m -201.72246,-0.60246 c 0,-0.19934 -1.95759,4.9982 -2.88159,4.27354 -1.52262,-1.19411 -0.35498,-7.1137 0.83913,-5.59108 1.25412,1.59912 2.04246,2.10766 2.04246,1.31754 z m 240.04738,-0.49167 c 1.19411,-1.52262 6.99524,-2.38244 5.47262,-1.18833 -0.924,0.72466 -1.68,1.48066 -1.68,1.68 0,0.79012 -5.04674,1.10745 -3.79262,-0.49167 z m -34.12738,-2.02587 c 0.95567,-1.056 1.52158,-1.92 1.25758,-1.92 -0.264,0 1.04226,2.443 0.0866,3.499 -0.95567,1.056 -3.82575,0.341 -3.56175,0.341 0.264,0 1.26191,-0.864 2.21758,-1.92 z m 4.44246,-3.6 c 1.19411,-1.52262 1.28008,3.04929 -0.24254,4.2434 -0.924,0.72466 -1.79992,-3.1252 -1.79992,-2.92586 0,0.79012 0.78834,0.28158 2.04246,-1.31754 z m 33.47754,-4.37168 c 0,-0.16042 -8.78409,2.35213 -8.33068,-0.29847 l 1.13068,-6.60985 3.30832,3.6 c 3.07931,3.3508 3.89168,4.0414 3.89168,3.30832 z m -22.91754,-3.30832 c 1.19411,-1.52262 2.55979,1.80153 1.03717,2.99564 -0.924,0.72466 -3.07963,-1.87744 -3.07963,-1.6781 0,0.79012 0.78834,0.28158 2.04246,-1.31754 z M 460.16243,246.31657 c -0.19108,-3.05528 0.73706,-0.81345 0.7349,4.99455 -0.002,5.808 -0.93209,8.31817 -0.73883,5.56545 0.19325,-2.75272 0.19502,-7.50472 0.004,-10.56 z m -20.15332,-22.54185 c -0.16871,-5.96926 4.63478,-1.79143 4.63406,9.82457 -7.3e-4,11.616 -4.80482,16.94217 -4.63539,11.29543 0.16943,-5.64673 0.17003,-15.15073 9.6e-4,-21.12 z m 21.11363,-18.2932 c -0.18746,-3.3 0.58548,-0.81629 0.58548,5.78371 0,6.6 -0.77294,9.51629 -0.58548,6.21629 0.18746,-3.3 0.18746,-8.7 0,-12 z m 0.93682,-27.36 c -0.21996,-1.452 0.72486,-0.47858 0.72486,2.42542 0,2.904 -0.94482,4.30658 -0.72486,2.85458 0.21996,-1.452 0.21996,-3.828 0,-5.28 z m -22.06344,-44.61463 c -0.2028,-2.25795 2.61761,-0.42416 2.61413,3.79984 -0.004,4.224 -2.82675,5.84621 -2.62048,3.88016 0.20629,-1.96604 0.20914,-5.42204 0.007,-7.68 z m 23.0303,0.93463 c -0.21295,-1.716 0.68328,-0.36257 0.68328,3.06943 0,3.432 -0.89623,4.88657 -0.68328,3.17057 0.21295,-1.716 0.21295,-4.524 0,-6.24 z m 0.15994,-9.9545 c 1.19411,-1.52262 3.30822,-1.68207 1.7856,-0.48796 -1.59912,1.25412 -2.10766,2.04246 -1.31754,2.04246 0.19934,0 -1.19272,-0.6305 -0.46806,-1.5545 z m 14.7456,-1.05996 c -1.716,-0.21295 -4.524,-0.21295 -6.24,0 -1.716,0.21295 -0.72541,-0.64893 2.70659,-0.64893 3.432,0 5.24941,0.86188 3.53341,0.64893 z m 43.2,-0.90133 c -0.66,-0.26631 -1.74,-0.26631 -2.4,0 -0.66,0.26632 -0.0921,-1.18735 1.22791,-1.18735 1.32,0 1.83209,1.45367 1.17209,1.18735 z m -84.96,-1.94597 c -0.924,-0.24146 -2.436,-0.24146 -3.36,0 -0.924,0.24147 0.0523,-1.11703 1.90028,-1.11703 1.848,0 2.38372,1.3585 1.45972,1.11703 z m 30.96,0.28447 c 0,-0.20751 -0.85382,1.13023 -1.67324,0.81578 -0.85433,-0.32783 -1.05629,-1.93168 -0.71997,-1.3875 0.56377,0.9122 2.39321,1.34923 2.39321,0.57172 z m -83.78,-1.16271 c -0.319,-0.319 -1.14701,-0.3531 -1.84,-0.0757 -0.76582,0.30645 0.0685,-0.14318 1.18685,-0.0971 1.01199,0.0417 0.97215,0.4919 0.65315,0.17291 z m 7.7,-0.0818 c -0.924,-0.24146 -2.436,-0.24146 -3.36,0 -0.924,0.24146 -0.14119,-0.19273 1.70681,-0.19273 1.848,0 2.57719,0.43419 1.65319,0.19273 z m 101.78537,-0.0361 c -1.96604,-0.20629 -5.42204,-0.20914 -7.68,-0.007 -2.25796,0.2028 -0.60563,-0.55923 3.61837,-0.55575 4.224,0.004 6.02767,0.76837 4.06163,0.5621 z m 15.09463,-2.208 c 24.45775,-0.9745 26.27202,-1.17439 32.16,-3.54326 15.4782,-6.22727 28.19092,-20.615656 34.0661,-38.556392 3.1376,-9.581125 -0.12942,-20.746197 -8.52811,-29.14489 -2.50026,-2.500255 -4.29409,-4.953388 -3.9863,-5.451408 0.3078,-0.49802 0.0539,-1.218088 -0.56436,-1.600153 -0.70198,-0.433846 1.65827,-0.987386 2.08608,-0.295188 0.40148,0.649618 3.79539,6.143705 3.25428,6.791446 -0.56361,0.674674 -7.54208,-5.174171 -8.50624,-5.834838 -1.49464,-1.024166 -8.57892,-5.092654 -13.94034,-6.491631 -6.44696,-1.68223 -75.54248,-1.793264 -77.56111,-0.124638 -0.92664,0.765976 -1.2,10.572106 -1.2,43.047621 v 42.055681 l 2.16,0.30677 c 2.41264,0.34266 4.02514,0.29657 40.56,-1.15912 z m 0.25119,1.28629 c -0.91784,-0.24027 -2.64584,-0.24899 -3.84,-0.0194 -1.19415,0.22962 -0.25568,-0.51946 1.85632,-0.5088 2.112,0.0106 2.90153,0.76845 1.98368,0.52817 z m 22.54881,-0.9779 c -1.188,-0.22883 -3.132,-0.22883 -4.32,0 -1.188,0.22882 0.0909,-0.32704 2.46692,-0.32704 2.376,0 3.04108,0.55586 1.85308,0.32704 z m 19.95626,-7.07176 3.32374,-2.94928 -2.71357,4.45839 c -1.33748,2.19747 -5.14643,1.00796 -5.36644,1.16132 -0.21999,0.15336 1.16271,-1.2382 1.66668,-1.2382 0.50395,0 1.26154,0.18986 3.08959,-1.43223 z m 9.08374,-7.61074 c 2.6003,-2.64 4.51183,-4.799996 4.24783,-4.799996 -0.264,0 -1.2105,3.699886 -3.8108,6.339886 -2.60031,2.64 -5.90886,3.26011 -5.64486,3.26011 0.264,0 2.60752,-2.16 5.20783,-4.8 z m 1.8985,0.95245 3.8615,-2.39245 -3.12,2.81961 c -1.716,1.55078 -3.12,2.95478 -3.12,3.12 0,0.74165 -0.95372,-1.48262 2.3785,-3.54716 z m 4.46396,-8.392446 c 1.19411,-1.52262 1.85295,0.207115 0.33033,1.401225 -1.59912,1.25412 -2.80045,0.278775 -2.01033,0.278775 0.19934,0 0.95534,-0.756 1.68,-1.68 z m 4.86265,-9.732945 c 0.32783,-0.85433 1.30808,-0.916585 0.7639,-0.580265 -0.52196,0.32259 -0.94901,0.99302 -0.94901,1.48986 0,1.3809 -0.45309,0.753525 0.18511,-0.909595 z m 5.38948,-10.212461 c -0.29557,-0.295572 0.54006,0.302689 0.17955,1.249461 -0.52098,1.36819 -1.78313,1.412998 -0.83502,0.471942 0.65609,-0.651201 0.95105,-1.425831 0.65547,-1.721403 z m 0.87987,-10.294597 c -0.21295,-1.716 1.024,0.199589 1.024,3.631589 0,3.432 -1.23695,4.324411 -1.024,2.608411 0.21295,-1.716 0.21295,-4.524 0,-6.24 z m -8.37446,-19.260393 c 0,-0.165216 -1.404,-1.569216 -3.12,-3.12 l -3.12,-2.819607 3.64449,2.656177 c 3.16786,2.3088 2.59551,4.025089 2.59551,3.28343 z m -10.56,-8.819607 c -0.6573,-0.792 -1.65677,-1.44 -2.22103,-1.44 -0.56427,0 1.68824,-1.028721 2.71315,-0.253512 2.40813,1.821417 1.00279,3.494775 -0.49212,1.693512 z m 4.8,-3.722453 c 0,-0.19935 1.47267,2.908256 0.54867,2.183606 -1.52262,-1.194116 -3.78524,-5.023767 -2.59113,-3.501153 1.25412,1.599118 2.04246,2.10766 2.04246,1.317547 z M 425.15023,31.331821 c -0.64995,-0.262966 -1.94595,-0.278973 -2.88,-0.03557 -0.93405,0.243403 0.29967,-2.320645 1.88367,-2.301081 1.584,0.01956 1.64628,2.599619 0.99633,2.336653 z m 58.85154,-1.070059 c -9.99361,-0.145122 -18.50493,0.06996 -18.91406,0.47795 -0.40913,0.407995 7.1478,-3.290566 17.49934,-2.226772 l 19.58491,2.01268 z m 61.59019,1.119758 c -0.319,-0.318999 -1.14701,-0.353105 -1.84,-0.07579 -0.76582,0.306457 -0.18214,-1.652836 0.93621,-1.606771 1.01199,0.04168 1.22279,2.001561 0.90379,1.682561 z M 412.67023,30.371821 c -0.64995,-0.262966 -1.94595,-0.278973 -2.88,-0.03557 -0.93405,0.243403 0.33425,-1.609992 1.91825,-1.590428 1.584,0.01956 1.6117,1.888966 0.96175,1.626 z m 128.64,0 c -0.64995,-0.262966 -1.94595,-0.278973 -2.88,-0.03557 -0.93405,0.243403 0.47152,-1.882481 2.05552,-1.862917 1.584,0.01956 1.47443,2.161455 0.82448,1.898489 z m -12.45835,-8.720045 c -3.27804,-0.18689 -8.89404,-0.188264 -12.48,-0.0031 -3.58596,0.185209 -0.74524,-0.321716 6.11876,-0.320037 6.864,0.0016 9.63928,0.509979 6.36124,0.323089 z m -48.50273,-0.9362 c -1.44254,-0.219047 -4.03454,-0.223456 -5.76,-0.0098 -1.72545,0.213658 -0.31236,-0.297511 2.85564,-0.292123 3.168,0.0054 4.34691,0.520967 2.90436,0.30192 z M 338.4193,314.55123 c -2.07677,-2.25786 -1.55419,-3.2798 0.22955,-2.35366 2.38714,1.23942 53.45517,42.18827 52.16673,42.18827 -0.50061,0 -51.11624,-38.44295 -52.39628,-39.83461 z m -6.64734,-5.62971 c -0.66665,-0.80327 -0.77061,-1.44 -0.2351,-1.44 0.528,0 1.34481,-3.11309 2.00211,-2.32109 0.66665,0.80327 9.86432,12.60682 9.3288,12.60682 -0.528,0 -10.43851,-8.05373 -11.09581,-8.84573 z"
       id="path414" />
  </g>
</svg>
