<?xml version="1.0" encoding="UTF-8" standalone="no"?>
<!-- Created with Inkscape (http://www.inkscape.org/) -->

<svg
   version="1.1"
   id="svg123"
   width="914.88"
   height="864"
   viewBox="0 0 914.88 864"
   xmlns="http://www.w3.org/2000/svg"
   xmlns:svg="http://www.w3.org/2000/svg">
  <defs
     id="defs127" />
  <g
     id="g129">
    <path
       style="fill:#800000;stroke-width:0.96"
       d="m 440.83001,834.36135 c -0.35845,-1.19796 -1.28225,-10.03684 -3.4448,-32.95983 -1.49687,-15.86673 -2.84248,-36.22842 -3.86995,-58.56 -0.53444,-11.616 -1.40939,-30.624 -1.94432,-42.24 -2.59583,-56.36843 -3.4853,-69.40114 -5.73012,-83.95925 -0.89648,-5.81394 -0.81923,-9.51205 0.41108,-19.68 3.16002,-26.11573 3.44006,-28.94675 3.44006,-34.77635 0,-3.29228 0.42492,-9.13562 0.94427,-12.98518 1.08465,-8.03963 2.61739,-43.13138 3.83577,-87.81869 0.46335,-16.99471 1.15135,-38.05471 1.52888,-46.8 0.40374,-9.35254 0.32866,-15.90053 -0.18233,-15.90053 -0.47781,0 -5.83176,4.95712 -11.89767,11.01584 -9.82884,9.81717 -13.93538,13.25359 -11.89725,9.95583 0.4278,-0.6922 0.26297,-0.84751 -0.439,-0.41366 -0.61819,0.38206 -0.8725,1.10159 -0.56511,1.59894 0.30739,0.49737 -0.74656,2.20973 -2.34209,3.80527 -1.59553,1.59553 -2.68933,3.42675 -2.43066,4.06937 0.25866,0.64263 2.21079,2.4597 4.33807,4.03794 5.59865,4.15369 17.18712,16.35077 17.18712,18.08977 0,3.0495 -12.79625,16.1962 -29.28,30.08188 -4.87622,4.10764 -19.73646,15.12015 -28.32,20.98714 -8.33815,5.69926 -23.74894,13.89168 -26.13169,13.89168 -0.72837,0 -1.73471,0.35566 -2.23631,0.79035 -2.24978,1.94969 -21.05993,6.66458 -29.80175,7.47001 -8.3771,0.77183 -8.16907,1.10999 -8.80404,-14.31222 -0.43464,-10.55658 0.54395,-19.9149 2.62971,-25.14814 0.42087,-1.056 1.28812,-3.864 1.92721,-6.24 2.05686,-7.64702 13.36924,-29.03905 15.02103,-28.40519 0.67319,0.25833 0.91532,-0.27905 0.62535,-1.38788 -0.29277,-1.11955 0.6637,-3.18867 2.50865,-5.42691 1.64002,-1.98961 2.98184,-4.10009 2.98184,-4.68996 0,-1.2928 3.80774,-4.88765 4.60671,-4.34917 0.31083,0.20949 2.8207,-2.59575 5.57749,-6.23386 2.75678,-3.63811 4.61068,-6.86298 4.11978,-7.16638 -1.13658,-0.70244 10.47233,-15.49187 15.93386,-20.2993 2.27523,-2.00274 4.72834,-3.64135 5.45136,-3.64135 1.32027,0 11.41253,6.27688 12.3108,7.65671 0.78598,1.20733 10.87365,9.62329 11.53482,9.62329 0.55686,0 9.14512,-6.45348 12.49898,-9.3921 0.7734,-0.67767 7.4542,-5.96741 14.8462,-11.755 14.31677,-11.20936 16.8,-13.34397 16.8,-14.44141 0,-0.38093 -1.48069,-1.99266 -3.29042,-3.58162 -1.80974,-1.58896 -3.03374,-3.14572 -2.72,-3.45945 0.31373,-0.31373 -0.0542,-0.57042 -0.81765,-0.57042 -0.76344,0 -2.01825,-0.87431 -2.78844,-1.94291 -0.77021,-1.0686 -3.04537,-3.26487 -5.05593,-4.8806 l -3.65556,-2.93767 -4.8101,1.72969 c -3.32848,1.19691 -5.01524,1.40943 -5.47602,0.68998 -0.36624,-0.57184 -1.63788,-1.34304 -2.82588,-1.71379 -1.188,-0.37075 -2.16,-1.10247 -2.16,-1.62604 0,-0.52359 -0.43505,-0.68309 -0.96678,-0.35446 -0.53173,0.32861 -1.225,-0.0754 -1.5406,-0.89783 -0.31559,-0.82245 -0.92595,-1.27771 -1.35634,-1.01171 -0.4304,0.266 -1.65282,-0.62275 -2.7165,-1.975 -1.06368,-1.35224 -2.28627,-2.48991 -2.71687,-2.52815 -1.78208,-0.15825 -8.94291,-5.78642 -8.94291,-7.02883 0,-0.7398 -4.428,-4.68717 -9.84,-8.77193 -5.412,-4.08477 -10.35301,-7.88674 -10.98002,-8.4488 -0.62702,-0.56207 -2.77772,-2.31795 -4.77936,-3.90195 -2.00164,-1.584 -6.24063,-5.04622 -9.41998,-7.69382 -10.50778,-8.75034 -13.89596,-11.16711 -14.83881,-10.5844 -0.51272,0.31689 -1.70839,-0.0649 -2.65703,-0.8483 -0.94864,-0.78345 -4.48489,-3.6085 -7.85833,-6.27789 -9.13395,-7.22766 -13.6802,-11.52256 -13.1334,-12.40728 0.26826,-0.43408 -0.68693,-1.82401 -2.12266,-3.08876 l -2.61041,-2.29955 2.32734,2.64 c 3.51836,3.99102 0.96141,3.16384 -2.96755,-0.96 -3.15035,-3.30662 -3.44475,-4.10893 -3.61248,-9.84516 -0.16766,-5.7341 0.0381,-6.44647 2.51504,-8.70515 4.00184,-3.64927 7.63311,-5.68969 10.12576,-5.68969 1.21862,0 4.51152,1.512 7.31757,3.36 2.80605,1.848 5.4962,3.36 5.97811,3.36 0.48192,0 0.87621,0.33886 0.87621,0.75302 0,0.41416 1.404,1.57256 3.12,2.57424 1.716,1.00167 4.632,3.00369 6.48,4.44894 1.848,1.44525 4.68472,3.41885 6.30383,4.38576 3.75146,2.24035 37.01281,26.54015 44.09617,32.21541 0.528,0.42304 5.70634,4.29005 11.50743,8.59335 27.46952,20.37715 25.85272,18.67737 25.12976,26.41937 -0.54193,5.8034 -0.43648,6.22432 2.18303,8.71394 4.93934,4.69441 7.73788,6.93597 8.65938,6.93597 0.49774,0 1.32606,0.7524 1.8407,1.672 0.51463,0.91961 1.17116,1.43655 1.45895,1.14876 1.47007,-1.47009 2.47641,-59.20742 2.4879,-142.74076 l 0.0129,-93.36 -2.16,-0.071 c -1.188,-0.0391 -14.66743,-0.0707 -29.95428,-0.0702 -16.55121,4.9e-4 -28.51427,-0.38451 -29.57421,-0.95177 -1.33814,-0.71616 -1.70691,-1.83055 -1.48572,-4.4898 l 0.29421,-3.53721 29.76,-0.16079 c 16.368,-0.0884 30.58614,-0.19644 31.59585,-0.24 1.78835,-0.0772 1.81999,-1.16365 1.22272,-41.976494 -0.33723,-23.043507 -0.73136,-42.010133 -0.87586,-42.148059 -0.14449,-0.137925 -8.42217,-0.811052 -18.39486,-1.495837 -19.81812,-1.360834 -21.05875,-1.771628 -22.05154,-7.301677 -1.12923,-6.290018 -3.45812,-6.04245 56.33226,-5.988286 56.5664,0.05124 91.20989,1.000655 94.32244,2.584926 1.01694,0.517619 4.44099,2.183826 7.60899,3.702681 11.38349,5.457661 22.0826,18.737244 25.6749,31.867314 1.60125,5.852656 1.94821,14.699711 0.73951,18.855983 -5.87317,20.195373 -26.29032,41.760509 -43.67686,46.132649 -2.95067,0.74199 -15.97804,1.48091 -33.61755,1.90681 -15.84,0.38244 -30.312,0.83432 -32.16,1.00418 -1.848,0.16985 -4.08187,0.34207 -4.96416,0.38271 -2.19809,0.10125 -2.53027,5.5522 -3.60242,59.11389 -0.48618,24.288 -1.13088,51.072 -1.43267,59.52 -0.30179,8.448 -0.76905,34.152 -1.03836,57.12 -0.26932,22.968 -0.65481,44.676 -0.85666,48.24 -0.20185,3.564 -0.0827,6.48 0.2649,6.48 0.34755,0 2.25456,-1.33753 4.2378,-2.97228 1.98324,-1.63476 4.19236,-2.74725 4.90914,-2.47219 1.0909,0.41862 1.09672,0.0817 0.0357,-2.06771 -0.69713,-1.41231 -1.36299,-3.64782 -1.47971,-4.96782 -0.56529,-6.39346 -0.0488,-7.35284 7.04641,-13.08891 3.828,-3.09472 7.176,-5.84967 7.44,-6.12212 1.21265,-1.25147 11.02673,-8.99881 20.64,-16.29346 5.808,-4.40715 10.776,-8.29754 11.04,-8.64529 0.53434,-0.70386 14.78963,-11.75464 19.526,-15.13666 1.6687,-1.19154 3.78547,-2.80344 4.70394,-3.58199 3.26558,-2.7681 14.92886,-11.05157 15.56084,-11.05157 0.3534,0 0.33179,0.54 -0.048,1.2 -0.40121,0.69719 -0.32439,0.8648 0.18334,0.4 0.48065,-0.44 0.88434,-1.304 0.89707,-1.92 0.0128,-0.616 0.73458,-1.06569 1.60409,-0.99932 0.88357,0.0675 1.3817,-0.39847 1.12929,-1.05626 -0.54379,-1.41709 10.98116,-9.14596 13.6304,-9.14083 6.06089,0.0117 16.72179,11.41987 16.72948,17.90208 0.003,2.61478 -1.39787,4.32548 -10.31641,12.59725 -5.676,5.26437 -12.48,11.37942 -15.12,13.58902 -2.64,2.2096 -6.49646,5.61284 -8.56989,7.56275 -2.07345,1.94993 -4.95805,4.43223 -6.41023,5.51623 -1.45218,1.084 -4.93973,3.9737 -7.7501,6.42154 -6.17753,5.38064 -12.42554,10.61327 -18.06302,15.12754 -2.30782,1.848 -7.24943,5.84626 -10.98139,8.88501 -3.73196,3.03876 -7.34781,5.31171 -8.03524,5.05099 -0.68741,-0.2607 -1.00936,-0.0849 -0.71543,0.39071 0.5187,0.83927 -6.21392,6.79329 -7.68164,6.79329 -0.40185,0 0.0924,-0.972 1.09815,-2.16 l 1.82879,-2.16 -2.13737,1.8083 c -1.17554,0.99456 -1.91017,2.17591 -1.63248,2.62521 0.76839,1.24328 -5.47371,4.67884 -8.5084,4.6829 -1.47303,0.002 -4.33255,-0.84037 -6.35448,-1.87188 l -3.67624,-1.87549 -2.21286,2.35549 c -1.21709,1.29551 -2.6504,2.35547 -3.18515,2.35547 -0.53473,0 0.2918,-1.31938 1.83675,-2.93197 1.71953,-1.7948 3.46524,-2.76038 4.50093,-2.48953 0.93056,0.24335 1.44983,0.0507 1.15394,-0.42803 -1.05287,-1.70359 -2.96648,-0.81646 -6.70983,3.11057 -2.08716,2.18958 -3.25483,3.67608 -2.59483,3.30335 2.33733,-1.32001 1.14358,0.59376 -3.29375,5.28043 -2.47156,2.61043 -4.73956,4.3485 -5.04,3.86238 -0.30043,-0.48612 -0.54625,1.88289 -0.54625,5.26447 0,3.38158 0.13662,5.73849 0.30358,5.23758 0.16697,-0.50092 1.46297,0.0985 2.88,1.33202 2.85889,2.48866 14.77868,12.45422 21.67507,18.12147 2.45142,2.0145 4.24326,4.00876 3.98187,4.43169 -0.26138,0.42293 0.48657,1.58271 1.66211,2.57727 l 2.13737,1.8083 -1.82879,-2.16 c -2.85638,-3.37369 -0.66696,-2.54129 4.27393,1.62493 3.4565,2.91457 5.016,3.64893 6.78177,3.19352 2.13826,-0.55147 2.19697,-0.46673 0.86963,1.25508 -1.40183,1.81843 -1.3909,1.8187 0.72,0.0177 2.19595,-1.87357 2.90188,-3.07325 1.18346,-2.01121 -1.87911,1.16135 -0.92433,-1.04117 1.05255,-2.42807 1.1069,-0.77656 4.37001,-3.2255 7.25133,-5.44209 2.88134,-2.21661 5.82879,-3.80377 6.5499,-3.52706 0.7211,0.27672 2.39703,-0.20841 3.72428,-1.07806 2.66624,-1.74698 4.58753,-1.1787 7.72098,2.28372 0.98866,1.09246 2.17182,1.75498 2.62926,1.47227 0.45743,-0.28271 0.8317,-0.0566 0.8317,0.50263 0,0.55916 0.54,0.90866 1.2,0.77666 0.66,-0.132 1.10562,0.25912 0.99028,0.86916 -0.11535,0.61003 1.29675,2.2582 3.13799,3.66257 1.84123,1.40438 3.09811,2.95726 2.79306,3.45084 -0.30506,0.49359 0.0934,0.89743 0.88536,0.89743 0.792,0 1.74824,0.49875 2.12498,1.10833 0.45034,0.72867 0.22311,0.86871 -0.66334,0.40881 -0.74158,-0.38474 -0.5458,-0.0458 0.43507,0.75311 2.13441,1.73854 15.38454,19.28022 17.13875,22.68975 0.67913,1.32 1.4992,2.616 1.82236,2.88 0.32318,0.264 1.30792,1.776 2.18832,3.36 0.88041,1.584 2.51958,4.392 3.64261,6.24 4.80121,7.90064 11.34456,21.11116 11.34456,22.9038 0,1.06858 0.38042,2.178 0.84537,2.46536 2.14647,1.32659 4.11094,14.11497 4.59869,29.93664 0.49607,16.09165 0.0131,17.6542 -5.45598,17.6542 -4.13294,0 -4.40251,-1.75663 -0.32239,-2.10085 2.14829,-0.18124 3.69854,-0.86672 3.93318,-1.73915 0.30437,-1.13168 0.19667,-1.169 -0.50303,-0.17433 -1.11097,1.57934 -15.09969,1.89283 -21.33584,0.47813 -7.20371,-1.63418 -16.31702,-5.03372 -25.92,-9.66895 -9.1505,-4.41682 -26.59932,-15.69708 -31.91891,-20.63485 -1.56428,-1.452 -3.05921,-2.64 -3.32208,-2.64 -1.13949,0 -18.74707,-14.85717 -26.31553,-22.20488 -9.0123,-8.74943 -12.36348,-13.07305 -12.36348,-15.95112 0,-1.86227 7.08865,-9.10558 17.52,-17.90224 3.036,-2.56023 5.51686,-5.14249 5.51303,-5.73835 -0.004,-0.59586 -4.5367,-5.18739 -10.07303,-10.20339 -5.53633,-5.016 -10.06919,-9.39273 -10.07303,-9.72606 -0.004,-0.33333 -1.59291,-1.81571 -3.53128,-3.29417 -1.93836,-1.47847 -3.20519,-2.17179 -2.81517,-1.54072 0.39003,0.63107 0.86633,3.62545 1.05845,6.65418 0.19212,3.02872 0.0384,4.71981 -0.34153,3.75798 -0.75575,-1.91313 -0.39868,12.00713 0.73436,28.62879 0.39592,5.808 0.82073,23.92895 0.94404,40.26878 0.12331,16.33984 0.46917,30.10517 0.76859,30.58964 0.29942,0.48447 0.9287,9.57951 1.3984,20.21121 1.62597,36.80413 4.32397,58.59956 8.61153,69.56713 0.59631,1.52534 0.39896,3.81539 -0.62045,7.2 -1.337,4.43904 -4.74131,24.62969 -5.85463,34.72324 -0.23296,2.112 -0.7027,5.352 -1.04389,7.2 l -0.62033,3.36 -0.58789,-3.36 c -0.32335,-1.848 -0.61005,1.824 -0.63711,8.16 -0.0435,10.17192 -0.99683,22.5873 -2.65385,34.56 -0.2923,2.112 -0.98376,9.672 -1.53657,16.8 -1.15051,14.8348 -4.24146,46.07668 -5.88868,59.52 -0.61462,5.016 -1.46109,12.144 -1.88106,15.84 -0.41996,3.696 -1.22581,10.608 -1.79077,15.36 -0.56495,4.752 -1.27876,10.8 -1.58624,13.44 -0.30747,2.64 -0.94916,5.2104 -1.42596,5.712 -0.47682,0.5016 -0.91,2.6616 -0.96262,4.8 -0.0526,2.1384 -0.38856,4.93598 -0.74648,6.21683 -0.73779,2.64015 -2.80289,3.75893 -3.37978,1.831 z m 3.22793,-7.94331 c 0.0187,-0.49692 -0.60024,-0.0649 -1.37545,0.96 -0.7752,1.02491 -1.4079,2.51148 -1.40598,3.30348 0.004,1.51129 2.72082,-2.65367 2.78143,-4.26348 z m 0.66981,-8.45652 c -0.26632,-0.66 -0.48422,-0.12 -0.48422,1.2 0,1.32 0.2179,1.86 0.48422,1.2 0.26631,-0.66 0.26631,-1.74 0,-2.4 z m -3.81052,-1.42173 c -0.2434,-0.93405 -0.45856,-0.40227 -0.47812,1.18173 -0.0196,1.584 0.17958,2.34822 0.44255,1.69827 0.26296,-0.64995 0.27897,-1.94595 0.0356,-2.88 z m 5.75051,-9.07827 c -0.30645,-0.76582 -0.53393,-0.53835 -0.57999,0.58 -0.0417,1.012 0.18521,1.579 0.50421,1.26 0.319,-0.31899 0.3531,-1.147 0.0758,-1.84 z m 0.94001,-5.82 c -0.26632,-0.66 -0.48422,-0.12 -0.48422,1.2 0,1.32 0.2179,1.86 0.48422,1.2 0.26631,-0.66 0.26631,-1.74 0,-2.4 z m -8.64,-3.84 c -0.26632,-0.66 -0.48422,-0.12 -0.48422,1.2 0,1.32 0.2179,1.86 0.48422,1.2 0.26631,-0.66 0.26631,-1.74 0,-2.4 z m -0.91682,-12.46881 c -0.22962,-1.19415 -0.42622,-0.44319 -0.43688,1.66881 -0.0107,2.112 0.17723,3.08904 0.4175,2.17119 0.24028,-0.91784 0.249,-2.64584 0.0194,-3.84 z m 11.50278,-0.49119 c -0.24146,-0.924 -0.43903,-0.168 -0.43903,1.68 0,1.848 0.19757,2.604 0.43903,1.68 0.24146,-0.924 0.24146,-2.436 0,-3.36 z m -12.46425,-12.96 c -0.22882,-1.188 -0.41604,-0.216 -0.41604,2.16 0,2.376 0.18722,3.348 0.41604,2.16 0.22882,-1.188 0.22882,-3.132 0,-4.32 z m 13.42425,1.44 c -0.24146,-0.924 -0.43903,-0.168 -0.43903,1.68 0,1.848 0.19757,2.604 0.43903,1.68 0.24146,-0.924 0.24146,-2.436 0,-3.36 z m 0.93404,-6.24 c -0.26632,-0.66 -0.48422,-0.12 -0.48422,1.2 0,1.32 0.2179,1.86 0.48422,1.2 0.26631,-0.66 0.26631,-1.74 0,-2.4 z m -15.30819,-9.12 c -0.21996,-1.452 -0.39993,-0.264 -0.39993,2.64 0,2.904 0.17997,4.092 0.39993,2.64 0.21996,-1.452 0.21996,-3.828 0,-5.28 z m 16.28818,-0.42 c -0.30645,-0.76582 -0.53393,-0.53835 -0.57999,0.58 -0.0417,1.012 0.18521,1.579 0.50421,1.26 0.319,-0.31899 0.3531,-1.147 0.0757,-1.84 z m 0.96,-5.76 c -0.30645,-0.76582 -0.53393,-0.53835 -0.57999,0.58 -0.0417,1.012 0.18521,1.579 0.50421,1.26 0.319,-0.31899 0.3531,-1.147 0.0757,-1.84 z m 0.96,-10.56 c -0.30645,-0.76582 -0.53393,-0.53835 -0.57999,0.58 -0.0417,1.012 0.18521,1.579 0.50421,1.26 0.319,-0.31899 0.3531,-1.147 0.0758,-1.84 z m -19.19403,-7.26 c -0.24146,-0.924 -0.43903,-0.168 -0.43903,1.68 0,1.848 0.19757,2.604 0.43903,1.68 0.24146,-0.924 0.24146,-2.436 0,-3.36 z m 20.16,-6.72 c -0.24146,-0.924 -0.43903,-0.168 -0.43903,1.68 0,1.848 0.19757,2.604 0.43903,1.68 0.24146,-0.924 0.24146,-2.436 0,-3.36 z m -21.10278,-8.14881 c -0.22962,-1.19415 -0.42622,-0.44319 -0.43688,1.66881 -0.0107,2.112 0.17723,3.08904 0.4175,2.17119 0.24028,-0.91784 0.249,-2.64584 0.0194,-3.84 z m 22.06278,-0.49119 c -0.24146,-0.924 -0.43903,-0.168 -0.43903,1.68 0,1.848 0.19757,2.604 0.43903,1.68 0.24146,-0.924 0.24146,-2.436 0,-3.36 z m 0.96,-12.48 c -0.24146,-0.924 -0.43903,-0.168 -0.43903,1.68 0,1.848 0.19757,2.604 0.43903,1.68 0.24146,-0.924 0.24146,-2.436 0,-3.36 z m 0.93404,-8.16 c -0.26632,-0.66 -0.48422,-0.12 -0.48422,1.2 0,1.32 0.2179,1.86 0.48422,1.2 0.26631,-0.66 0.26631,-1.74 0,-2.4 z m -24.90819,-8.16 c -0.21996,-1.452 -0.39993,-0.264 -0.39993,2.64 0,2.904 0.17997,4.092 0.39993,2.64 0.21996,-1.452 0.21996,-3.828 0,-5.28 z m 25.91137,-2.38881 c -0.22962,-1.19415 -0.42622,-0.44319 -0.43688,1.66881 -0.0107,2.112 0.17723,3.08904 0.4175,2.17119 0.24028,-0.91784 0.249,-2.64584 0.0194,-3.84 z m 0.96,-10.56 c -0.22962,-1.19415 -0.42622,-0.44319 -0.43688,1.66881 -0.0107,2.112 0.17723,3.08904 0.4175,2.17119 0.24028,-0.91784 0.249,-2.64584 0.0194,-3.84 z m -27.84,-2.88 c -0.22962,-1.19415 -0.42622,-0.44319 -0.43688,1.66881 -0.0107,2.112 0.17723,3.08904 0.4175,2.17119 0.24028,-0.91784 0.249,-2.64584 0.0194,-3.84 z m 28.75682,-4.81119 c -0.26632,-0.66 -0.48422,-0.12 -0.48422,1.2 0,1.32 0.2179,1.86 0.48422,1.2 0.26631,-0.66 0.26631,-1.74 0,-2.4 z m 0.97999,-6.66 c -0.30645,-0.76582 -0.53393,-0.53835 -0.57999,0.58 -0.0417,1.012 0.18521,1.579 0.50421,1.26 0.319,-0.31899 0.3531,-1.147 0.0758,-1.84 z m -30.68004,-9.64281 c -0.21366,-1.72545 -0.39288,-0.54519 -0.39827,2.62281 -0.006,3.168 0.16942,4.57974 0.38848,3.13719 0.21904,-1.44254 0.22345,-4.03454 0.01,-5.76 z m -0.99399,-12.97719 c -0.24146,-0.924 -0.43903,-0.168 -0.43903,1.68 0,1.848 0.19757,2.604 0.43903,1.68 0.24146,-0.924 0.24146,-2.436 0,-3.36 z m 34.56,-3.84 c -0.24146,-0.924 -0.43903,-0.168 -0.43903,1.68 0,1.848 0.19757,2.604 0.43903,1.68 0.24146,-0.924 0.24146,-2.436 0,-3.36 z m 0.93404,-6.24 c -0.26632,-0.66 -0.48422,-0.12 -0.48422,1.2 0,1.32 0.2179,1.86 0.48422,1.2 0.26631,-0.66 0.26631,-1.74 0,-2.4 z m 0.97999,-6.66 c -0.30645,-0.76582 -0.53393,-0.53835 -0.57999,0.58 -0.0417,1.012 0.18521,1.579 0.50421,1.26 0.319,-0.31899 0.3531,-1.147 0.0757,-1.84 z m -38.41999,-2.94 c -0.26632,-0.66 -0.48422,-0.12 -0.48422,1.2 0,1.32 0.2179,1.86 0.48422,1.2 0.26631,-0.66 0.26631,-1.74 0,-2.4 z m -0.94001,-5.7 c -0.30645,-0.76582 -0.53393,-0.53835 -0.57999,0.58 -0.0417,1.012 0.18521,1.579 0.50421,1.26 0.319,-0.31899 0.3531,-1.147 0.0758,-1.84 z m 43.18001,-9.66 c -0.26632,-0.66 -0.48422,-0.12 -0.48422,1.2 0,1.32 0.2179,1.86 0.48422,1.2 0.26631,-0.66 0.26631,-1.74 0,-2.4 z m -43.17052,-3.34173 c -0.2434,-0.93405 -0.45856,-0.40227 -0.47812,1.18173 -0.0196,1.584 0.17958,2.34822 0.44255,1.69827 0.26296,-0.64995 0.27897,-1.94595 0.0356,-2.88 z m 0.95648,-6.73827 c -0.24146,-0.924 -0.43903,-0.168 -0.43903,1.68 0,1.848 0.19757,2.604 0.43903,1.68 0.24146,-0.924 0.24146,-2.436 0,-3.36 z m 39.35403,-3.3 c -0.30645,-0.76582 -0.53393,-0.53835 -0.57999,0.58 -0.0417,1.012 0.18521,1.579 0.50421,1.26 0.319,-0.31899 0.3531,-1.147 0.0758,-1.84 z m -1.92,-8.64 c -0.30645,-0.76582 -0.53393,-0.53835 -0.57999,0.58 -0.0417,1.012 0.18521,1.579 0.50421,1.26 0.319,-0.31899 0.3531,-1.147 0.0757,-1.84 z m -35.49681,-7.72881 c -0.22962,-1.19415 -0.42622,-0.44319 -0.43688,1.66881 -0.0107,2.112 0.17723,3.08904 0.4175,2.17119 0.24028,-0.91784 0.249,-2.64584 0.0194,-3.84 z m 34.56,-0.96 c -0.22962,-1.19415 -0.42622,-0.44319 -0.43688,1.66881 -0.0107,2.112 0.17723,3.08904 0.4175,2.17119 0.24028,-0.91784 0.249,-2.64584 0.0194,-3.84 z m -33.61722,-8.17119 c -0.24146,-0.924 -0.43903,-0.168 -0.43903,1.68 0,1.848 0.19757,2.604 0.43903,1.68 0.24146,-0.924 0.24146,-2.436 0,-3.36 z m 32.61404,-6.24 c -0.26632,-0.66 -0.48422,-0.12 -0.48422,1.2 0,1.32 0.2179,1.86 0.48422,1.2 0.26631,-0.66 0.26631,-1.74 0,-2.4 z m -0.93404,-6.24 c -0.24146,-0.924 -0.43903,-0.168 -0.43903,1.68 0,1.848 0.19757,2.604 0.43903,1.68 0.24146,-0.924 0.24146,-2.436 0,-3.36 z m -30.72,-2.88 c -0.24146,-0.924 -0.43903,-0.168 -0.43903,1.68 0,1.848 0.19757,2.604 0.43903,1.68 0.24146,-0.924 0.24146,-2.436 0,-3.36 z m 0.99399,-15.82281 c -0.21366,-1.72545 -0.39288,-0.54519 -0.39827,2.62281 -0.006,3.168 0.16942,4.57974 0.38848,3.13719 0.21904,-1.44254 0.22345,-4.03454 0.01,-5.76 z m 28.79313,-1.44399 c -0.22065,-1.45926 -0.40709,-0.4932 -0.4143,2.1468 -0.007,2.64 0.17334,3.83394 0.4012,2.6532 0.22787,-1.18074 0.23377,-3.34074 0.0131,-4.8 z m -0.96,-13.44 c -0.22065,-1.45926 -0.40709,-0.4932 -0.4143,2.1468 -0.007,2.64 0.17334,3.83394 0.4012,2.6532 0.22787,-1.18074 0.23377,-3.34074 0.0131,-4.8 z m -149.74887,2.0468 c -0.319,-0.319 -1.14701,-0.3531 -1.84,-0.0757 -0.76582,0.30645 -0.53835,0.53394 0.58,0.58 1.01199,0.0417 1.579,-0.18522 1.26,-0.50421 z m 4.34,-0.0558 c -0.66,-0.26631 -1.74,-0.26631 -2.4,0 -0.66,0.26632 -0.12,0.48422 1.2,0.48422 1.32,0 1.86,-0.2179 1.2,-0.48422 z m -10.16421,-4.40422 c -0.26632,-0.66 -0.48422,-0.12 -0.48422,1.2 0,1.32 0.2179,1.86 0.48422,1.2 0.26631,-0.66 0.26631,-1.74 0,-2.4 z m 20.22421,2.54 c -0.319,-0.319 -1.14701,-0.3531 -1.84,-0.0757 -0.76582,0.30645 -0.53835,0.53394 0.58,0.58 1.01199,0.0417 1.579,-0.18522 1.26,-0.50421 z m 108.47446,-9.26 c -0.21295,-1.716 -0.38719,-0.312 -0.38719,3.12 0,3.432 0.17424,4.836 0.38719,3.12 0.21295,-1.716 0.21295,-4.524 0,-6.24 z m -129.61549,-4.78881 c -0.22962,-1.19415 -0.42622,-0.44319 -0.43688,1.66881 -0.0107,2.112 0.17723,3.08904 0.4175,2.17119 0.24028,-0.91784 0.249,-2.64584 0.0194,-3.84 z M 460.1576,496.8415 c -0.19776,-2.508 -0.35956,-0.456 -0.35956,4.56 0,5.016 0.1618,7.068 0.35956,4.56 0.19776,-2.508 0.19776,-6.612 0,-9.12 z m -24.98667,1.45119 c -0.22962,-1.19415 -0.42622,-0.44319 -0.43688,1.66881 -0.0107,2.112 0.17723,3.08904 0.4175,2.17119 0.24028,-0.91784 0.249,-2.64584 0.0194,-3.84 z m -129.6137,-1.43292 c -0.2434,-0.93405 -0.45856,-0.40227 -0.47812,1.18173 -0.0196,1.584 0.17958,2.34822 0.44255,1.69827 0.26296,-0.64995 0.27897,-1.94595 0.0356,-2.88 z m 210.53473,2.25927 c 0,-0.19934 -0.756,-0.95534 -1.68,-1.68 -1.52262,-1.19411 -1.55657,-1.16016 -0.36246,0.36246 1.25412,1.59912 2.04246,2.10766 2.04246,1.31754 z m 67.85578,-3.65754 c -0.30645,-0.76582 -0.53393,-0.53835 -0.57999,0.58 -0.0417,1.012 0.18521,1.579 0.50421,1.26 0.319,-0.31899 0.3531,-1.147 0.0758,-1.84 z m -205.01332,-1.5 c 1.19411,-1.52262 1.16016,-1.55657 -0.36246,-0.36246 -0.924,0.72466 -1.68,1.48066 -1.68,1.68 0,0.79012 0.78834,0.28158 2.04246,-1.31754 z m -72.41719,-4.78173 c -0.2434,-0.93405 -0.45856,-0.40227 -0.47812,1.18173 -0.0196,1.584 0.17958,2.34822 0.44255,1.69827 0.26296,-0.64995 0.27897,-1.94595 0.0356,-2.88 z m 76.25719,1.90173 c 1.19411,-1.52262 1.16016,-1.55657 -0.36246,-0.36246 -1.59912,1.25412 -2.10766,2.04246 -1.31754,2.04246 0.19934,0 0.95534,-0.756 1.68,-1.68 z m 3.84,-2.88 c 1.19411,-1.52262 1.16016,-1.55657 -0.36246,-0.36246 -0.924,0.72466 -1.68,1.48066 -1.68,1.68 0,0.79012 0.78834,0.28158 2.04246,-1.31754 z m 115.07754,0.35754 c 0,-0.19934 -0.756,-0.95534 -1.68,-1.68 -1.52262,-1.19411 -1.55657,-1.16016 -0.36246,0.36246 1.25412,1.59912 2.04246,2.10766 2.04246,1.31754 z M 390.45442,485.3215 c 1.19411,-1.52262 1.16016,-1.55657 -0.36246,-0.36246 -1.59912,1.25412 -2.10766,2.04246 -1.31754,2.04246 0.19934,0 0.95534,-0.756 1.68,-1.68 z m 4.19754,-3.12 c 0.95567,-1.056 1.52158,-1.92 1.25758,-1.92 -0.264,0 -1.26191,0.864 -2.21758,1.92 -0.95567,1.056 -1.52158,1.92 -1.25758,1.92 0.264,0 1.26191,-0.864 2.21758,-1.92 z m 101.28,1.55754 c 0,-0.19934 -0.756,-0.95534 -1.68,-1.68 -1.52262,-1.19411 -1.55657,-1.16016 -0.36246,0.36246 1.25412,1.59912 2.04246,2.10766 2.04246,1.31754 z m -4.8,-3.84 c 0,-0.19934 -0.756,-0.95534 -1.68,-1.68 -1.52262,-1.19411 -1.55657,-1.16016 -0.36246,0.36246 1.25412,1.59912 2.04246,2.10766 2.04246,1.31754 z m -90.11754,-3.23754 c 1.19411,-1.52262 1.16016,-1.55657 -0.36246,-0.36246 -1.59912,1.25412 -2.10766,2.04246 -1.31754,2.04246 0.19934,0 0.95534,-0.756 1.68,-1.68 z m 177.80881,-1.7214 c -0.31266,-0.81478 -0.77436,-1.27552 -1.026,-1.02387 -0.25164,0.25164 -0.17278,0.91828 0.17525,1.4814 0.94661,1.53164 1.49989,1.23409 0.85075,-0.45753 z m -93.45127,0.22972 c 0,-0.16042 -1.62,-1.78042 -3.6,-3.6 l -3.6,-3.30832 3.30832,3.6 c 3.07931,3.3508 3.89168,4.0414 3.89168,3.30832 z m -173.3937,-2.15818 c 0.32783,-0.85432 0.16689,-1.23967 -0.37729,-0.90334 -0.52196,0.32258 -0.94901,0.99302 -0.94901,1.48986 0,1.38089 0.6881,1.0766 1.3263,-0.58652 z m 98.0337,-4.27014 c 2.6003,-2.64 4.51183,-4.8 4.24783,-4.8 -0.264,0 -2.60753,2.16 -5.20783,4.8 -2.60031,2.64 -4.51183,4.8 -4.24783,4.8 0.264,0 2.60752,-2.16 5.20783,-4.8 z m 26.1276,-5.52 c -0.21996,-1.452 -0.39993,-0.264 -0.39993,2.64 0,2.904 0.17997,4.092 0.39993,2.64 0.21996,-1.452 0.21996,-3.828 0,-5.28 z m -119.91301,0.2146 c -0.29557,-0.29558 -0.83236,0.23722 -1.19287,1.184 -0.52098,1.36819 -0.41071,1.47845 0.5374,0.5374 0.65609,-0.6512 0.95105,-1.42583 0.65547,-1.7214 z m 105.3658,-6.4546 2.81961,-3.12 -3.12,2.81961 c -2.90828,2.62827 -3.56127,3.42039 -2.81961,3.42039 0.16522,0 1.56922,-1.404 3.12,-3.12 z m 4.05586,-6.61124 c -0.23967,-0.71899 -0.67482,-0.28382 -1.01429,1.01429 -0.41757,1.59681 -0.29264,1.97163 0.41975,1.25924 0.55786,-0.55786 0.8254,-1.58095 0.59454,-2.27353 z m 138.44375,-2.74876 c -0.56515,-1.056 -1.24356,-1.92 -1.50756,-1.92 -0.264,0 -0.0176,0.864 0.54756,1.92 0.56515,1.056 1.24355,1.92 1.50755,1.92 0.264,0 0.0176,-0.864 -0.54755,-1.92 z m -94.49961,-2.16 2.81961,-3.12 -3.12,2.81961 c -2.90828,2.62827 -3.56127,3.42039 -2.81961,3.42039 0.16522,0 1.56922,-1.404 3.12,-3.12 z m -48.61305,-1.29688 c -1.28004,-1.37329 -4.91934,-4.67497 -8.08734,-7.33705 -4.34482,-3.65098 -3.87309,-3.04844 1.92,2.45242 7.71856,7.32921 10.49726,9.52998 6.16734,4.88463 z m 16.1383,-12.62312 c -0.19776,-2.508 -0.35956,-0.456 -0.35956,4.56 0,5.016 0.1618,7.068 0.35956,4.56 0.19776,-2.508 0.19776,-6.612 0,-9.12 z m 121.21436,7.07754 c 0,-0.19934 -0.756,-0.95534 -1.68,-1.68 -1.52262,-1.19411 -1.55657,-1.16016 -0.36246,0.36246 1.25412,1.59912 2.04246,2.10766 2.04246,1.31754 z m -78.24,-2.51754 c 0.95567,-1.056 1.52158,-1.92 1.25758,-1.92 -0.264,0 -1.26191,0.864 -2.21758,1.92 -0.95567,1.056 -1.52158,1.92 -1.25758,1.92 0.264,0 1.26191,-0.864 2.21758,-1.92 z m -75.9537,-9.16986 c 0.32783,-0.85432 0.16689,-1.23967 -0.37729,-0.90334 -0.52196,0.32258 -0.94901,0.99302 -0.94901,1.48986 0,1.38089 0.6881,1.0766 1.3263,-0.58652 z m 84.1137,0.24469 c 0,-0.15684 -1.836,-1.99284 -4.08,-4.08 l -4.08,-3.79483 3.79483,4.08 c 3.52915,3.79436 4.36517,4.52115 4.36517,3.79483 z m 60.48,-1.96604 c 0,-0.18217 -0.972,-1.15417 -2.16,-2.16 l -2.16,-1.82879 1.82879,2.16 c 1.71861,2.02986 2.49121,2.59703 2.49121,1.82879 z M 407.73442,422.9215 c 1.19411,-1.52262 1.16016,-1.55657 -0.36246,-0.36246 -1.59912,1.25412 -2.10766,2.04246 -1.31754,2.04246 0.19934,0 0.95534,-0.756 1.68,-1.68 z m -61.08246,-5.04 c 0.95567,-1.056 1.52158,-1.92 1.25758,-1.92 -0.264,0 -1.26191,0.864 -2.21758,1.92 -0.95567,1.056 -1.52158,1.92 -1.25758,1.92 0.264,0 1.26191,-0.864 2.21758,-1.92 z m 151.2,-0.36246 c 0,-0.19934 -0.756,-0.95534 -1.68,-1.68 -1.52262,-1.19411 -1.55657,-1.16016 -0.36246,0.36246 1.25412,1.59912 2.04246,2.10766 2.04246,1.31754 z M 392.82317,413.8015 c 1.81404,-2.14258 1.8133,-2.14715 -0.0912,-0.56753 -1.056,0.87586 -3,1.78903 -4.32,2.02927 l -2.4,0.4368 2.49121,0.13073 c 1.52039,0.0798 3.20389,-0.71103 4.32,-2.02927 z m -42.33121,-0.72 c 0.95567,-1.056 1.52158,-1.92 1.25758,-1.92 -0.264,0 -1.26191,0.864 -2.21758,1.92 -0.95567,1.056 -1.52158,1.92 -1.25758,1.92 0.264,0 1.26191,-0.864 2.21758,-1.92 z m 123.36,0.66832 c 0,-0.16042 -1.62,-1.78042 -3.6,-3.6 l -3.6,-3.30832 3.30832,3.6 c 3.07931,3.3508 3.89168,4.0414 3.89168,3.30832 z m -92.63041,-3.53831 c -1.51229,-1.57849 -2.93896,-2.68064 -3.17037,-2.44923 -0.39994,0.39994 4.61819,5.2251 5.50038,5.28888 0.23079,0.0167 -0.81771,-1.26116 -2.33001,-2.83965 z m 56.19001,-14.75441 c -0.69281,-0.6928 -1.36791,-0.62857 -2.1996,0.20928 -0.96216,0.96927 -0.86703,1.0821 0.48,0.56929 1.51784,-0.57785 1.69905,0.22741 1.87741,8.34312 l 0.19741,8.98271 0.32218,-8.5524 c 0.19181,-5.09152 -0.0823,-8.9569 -0.6774,-9.552 z m -39.3996,14.2644 c 1.24008,-1.32 2.03868,-2.4 1.77468,-2.4 -0.264,0 -1.4946,1.08 -2.73468,2.4 -1.24008,1.32 -2.03869,2.4 -1.77469,2.4 0.264,0 1.49461,-1.08 2.73469,-2.4 z m 23.52,0.48 c 0.95567,-1.056 1.52158,-1.92 1.25758,-1.92 -0.264,0 -1.26191,0.864 -2.21758,1.92 -0.95567,1.056 -1.52158,1.92 -1.25758,1.92 0.264,0 1.26191,-0.864 2.21758,-1.92 z m -66.59754,-2.64 c 1.19411,-1.52262 1.16016,-1.55657 -0.36246,-0.36246 -1.59912,1.25412 -2.10766,2.04246 -1.31754,2.04246 0.19934,0 0.95534,-0.756 1.68,-1.68 z m 21.50517,-1.1553 c -0.31114,-0.50342 -1.95663,-1.84052 -3.65666,-2.97136 -3.07777,-2.04727 -3.07663,-2.04347 0.26903,0.88948 3.54567,3.1083 4.31369,3.58029 3.38763,2.08188 z m 50.85237,-1.9647 c 0.95567,-1.056 1.52158,-1.92 1.25758,-1.92 -0.264,0 -1.26191,0.864 -2.21758,1.92 -0.95567,1.056 -1.52158,1.92 -1.25758,1.92 0.264,0 1.26191,-0.864 2.21758,-1.92 z m -67.68,-1.44 c 1.24008,-1.32 2.03868,-2.4 1.77468,-2.4 -0.264,0 -1.4946,1.08 -2.73468,2.4 -1.24008,1.32 -2.03869,2.4 -1.77469,2.4 0.264,0 1.49461,-1.08 2.73469,-2.4 z m 47.16246,-0.24 c 1.19411,-1.52262 1.16016,-1.55657 -0.36246,-0.36246 -1.59912,1.25412 -2.10766,2.04246 -1.31754,2.04246 0.19934,0 0.95534,-0.756 1.68,-1.68 z m 56.51754,1.31754 c 0,-0.19934 -0.756,-0.95534 -1.68,-1.68 -1.52262,-1.19411 -1.55657,-1.16016 -0.36246,0.36246 1.25412,1.59912 2.04246,2.10766 2.04246,1.31754 z m 18.24,0 c 0,-0.19934 -0.756,-0.95534 -1.68,-1.68 -1.52262,-1.19411 -1.55657,-1.16016 -0.36246,0.36246 1.25412,1.59912 2.04246,2.10766 2.04246,1.31754 z m -112.32,-2.88 c 0,-0.19934 -0.756,-0.95534 -1.68,-1.68 -1.52262,-1.19411 -1.55657,-1.16016 -0.36246,0.36246 1.25412,1.59912 2.04246,2.10766 2.04246,1.31754 z m 62.88,-1.55754 c 0.95567,-1.056 1.52158,-1.92 1.25758,-1.92 -0.264,0 -1.26191,0.864 -2.21758,1.92 -0.95567,1.056 -1.52158,1.92 -1.25758,1.92 0.264,0 1.26191,-0.864 2.21758,-1.92 z m 45.6,1.61961 c 0,-0.16522 -1.404,-1.56922 -3.12,-3.12 l -3.12,-2.81961 2.8196,3.12 c 2.62827,2.90828 3.4204,3.56126 3.4204,2.81961 z m -60.96,-6.41961 c 0.95567,-1.056 1.52158,-1.92 1.25758,-1.92 -0.264,0 -1.26191,0.864 -2.21758,1.92 -0.95567,1.056 -1.52158,1.92 -1.25758,1.92 0.264,0 1.26191,-0.864 2.21758,-1.92 z m 5.40246,-4.56 c 1.19411,-1.52262 1.16016,-1.55657 -0.36246,-0.36246 -1.59912,1.25412 -2.10766,2.04246 -1.31754,2.04246 0.19934,0 0.95534,-0.756 1.68,-1.68 z m 43.07754,0.35754 c 0,-0.19934 -0.756,-0.95534 -1.68,-1.68 -1.52262,-1.19411 -1.55657,-1.16016 -0.36246,0.36246 1.25412,1.59912 2.04246,2.10766 2.04246,1.31754 z m -1.44,-21.71754 c 0.95567,-1.056 1.52158,-1.92 1.25758,-1.92 -0.264,0 -1.26191,0.864 -2.21758,1.92 -0.95567,1.056 -1.52158,1.92 -1.25758,1.92 0.264,0 1.26191,-0.864 2.21758,-1.92 z m -25.7,-2.5 c -0.319,-0.319 -1.14701,-0.3531 -1.84,-0.0757 -0.76582,0.30645 -0.53835,0.53394 0.58,0.58 1.01199,0.0417 1.579,-0.18522 1.26,-0.50421 z m -3.58,-0.74246 c 0,-0.19934 -0.756,-0.95534 -1.68,-1.68 -1.52262,-1.19411 -1.55657,-1.16016 -0.36246,0.36246 1.25412,1.59912 2.04246,2.10766 2.04246,1.31754 z m 4.5528,-18.55761 c -0.18521,-3.58597 -0.33812,-0.90393 -0.3398,5.96007 -0.002,6.864 0.14985,9.79796 0.33675,6.51993 0.18688,-3.27805 0.18826,-8.89405 0.003,-12.48 z m 47.0272,14.50007 c -0.319,-0.319 -1.14701,-0.3531 -1.84,-0.0758 -0.76582,0.30645 -0.53835,0.53394 0.58,0.58 1.01199,0.0417 1.579,-0.18522 1.26,-0.50421 z m -5.02,-1.34 c -0.32633,-0.528 -1.10782,-0.95338 -1.73666,-0.9453 -0.68699,0.009 -0.56858,0.38614 0.29666,0.9453 1.84427,1.19187 2.17661,1.19187 1.44,0 z m 9.65651,-0.53296 c 1.7571,-1.40772 1.72647,-1.4277 -0.53651,-0.34996 -2.93859,1.3995 -3.48321,1.84292 -2.26349,1.84292 0.51509,0 1.77509,-0.67183 2.8,-1.49296 z m -62.93651,0.1705 c 0,-0.19934 -0.756,-0.95534 -1.68,-1.68 -1.52262,-1.19411 -1.55657,-1.16016 -0.36246,0.36246 1.25412,1.59912 2.04246,2.10766 2.04246,1.31754 z m 72.12246,-7.07754 c 1.19411,-1.52262 1.16016,-1.55657 -0.36246,-0.36246 -0.924,0.72466 -1.68,1.48066 -1.68,1.68 0,0.79012 0.78834,0.28158 2.04246,-1.31754 z m -81.08667,-3.36 c -0.26632,-0.66 -0.48422,-0.12 -0.48422,1.2 0,1.32 0.2179,1.86 0.48422,1.2 0.26631,-0.66 0.26631,-1.74 0,-2.4 z m 51.85999,-2.82 c -0.30645,-0.76582 -0.53393,-0.53835 -0.57999,0.58 -0.0417,1.012 0.18521,1.579 0.50421,1.26 0.319,-0.31899 0.3531,-1.147 0.0758,-1.84 z m 38.82668,-1.5 c 1.19411,-1.52262 1.16016,-1.55657 -0.36246,-0.36246 -1.59912,1.25412 -2.10766,2.04246 -1.31754,2.04246 0.19934,0 0.95534,-0.756 1.68,-1.68 z m 4.8,-3.84 c 1.19411,-1.52262 1.16016,-1.55657 -0.36246,-0.36246 -0.924,0.72466 -1.68,1.48066 -1.68,1.68 0,0.79012 0.78834,0.28158 2.04246,-1.31754 z m -97.08246,-4.44246 c 0,-0.19934 -0.756,-0.95534 -1.68,-1.68 -1.52262,-1.19411 -1.55657,-1.16016 -0.36246,0.36246 1.25412,1.59912 2.04246,2.10766 2.04246,1.31754 z m 58.14039,-3.71754 2.81961,-3.12 -3.12,2.81961 c -2.90828,2.62827 -3.56127,3.42039 -2.81961,3.42039 0.16522,0 1.56922,-1.404 3.12,-3.12 z m -61.98039,0.83754 c 0,-0.19934 -0.756,-0.95534 -1.68,-1.68 -1.52262,-1.19411 -1.55657,-1.16016 -0.36246,0.36246 1.25412,1.59912 2.04246,2.10766 2.04246,1.31754 z m 45.83078,-18.11754 c -0.18746,-3.3 -0.34084,-0.6 -0.34084,6 0,6.6 0.15338,9.3 0.34084,6 0.18746,-3.3 0.18746,-8.7 0,-12 z m 68.53168,14.88 c 1.19411,-1.52262 1.16016,-1.55657 -0.36246,-0.36246 -0.924,0.72466 -1.68,1.48066 -1.68,1.68 0,0.79012 0.78834,0.28158 2.04246,-1.31754 z m -46.68246,-2.16 c 0.95567,-1.056 1.52158,-1.92 1.25758,-1.92 -0.264,0 -1.26191,0.864 -2.21758,1.92 -0.95567,1.056 -1.52158,1.92 -1.25758,1.92 0.264,0 1.26191,-0.864 2.21758,-1.92 z m 54.36246,-4.56 c 1.19411,-1.52262 1.16016,-1.55657 -0.36246,-0.36246 -0.924,0.72466 -1.68,1.48066 -1.68,1.68 0,0.79012 0.78834,0.28158 2.04246,-1.31754 z m 6.59754,-5.52 c 1.24008,-1.32 2.03868,-2.4 1.77468,-2.4 -0.264,0 -1.4946,1.08 -2.73468,2.4 -1.24008,1.32 -2.03869,2.4 -1.77469,2.4 0.264,0 1.49461,-1.08 2.73469,-2.4 z m -148.8,0.11754 c 0,-0.19934 -0.756,-0.95534 -1.68,-1.68 -1.52262,-1.19411 -1.55657,-1.16016 -0.36246,0.36246 1.25412,1.59912 2.04246,2.10766 2.04246,1.31754 z m 106.68246,-5.15754 c 1.19411,-1.52262 1.16016,-1.55657 -0.36246,-0.36246 -0.924,0.72466 -1.68,1.48066 -1.68,1.68 0,0.79012 0.78834,0.28158 2.04246,-1.31754 z m 50.88,-2.88 c 1.19411,-1.52262 1.16016,-1.55657 -0.36246,-0.36246 -0.924,0.72466 -1.68,1.48066 -1.68,1.68 0,0.79012 0.78834,0.28158 2.04246,-1.31754 z m 5.76,-4.8 c 1.19411,-1.52262 1.16016,-1.55657 -0.36246,-0.36246 -0.924,0.72466 -1.68,1.48066 -1.68,1.68 0,0.79012 0.78834,0.28158 2.04246,-1.31754 z m -181.56246,-0.60246 c 0,-0.19934 -0.756,-0.95534 -1.68,-1.68 -1.52262,-1.19411 -1.55657,-1.16016 -0.36246,0.36246 1.25412,1.59912 2.04246,2.10766 2.04246,1.31754 z m -46.08,-0.99687 c 0,-0.21963 -1.836,-1.77254 -4.08,-3.45091 l -4.08,-3.05158 3.84,3.43662 c 3.88449,3.47645 4.32,3.78553 4.32,3.06587 z m 234.24,-3.92067 c 1.24008,-1.32 2.03868,-2.4 1.77468,-2.4 -0.264,0 -1.4946,1.08 -2.73468,2.4 -1.24008,1.32 -2.03869,2.4 -1.77469,2.4 0.264,0 1.49461,-1.08 2.73469,-2.4 z m -41.76,-3.36 c 0.95567,-1.056 1.52158,-1.92 1.25758,-1.92 -0.264,0 -1.26191,0.864 -2.21758,1.92 -0.95567,1.056 -1.52158,1.92 -1.25758,1.92 0.264,0 1.26191,-0.864 2.21758,-1.92 z m -201.12,0.57498 c 0,-0.21175 -2.7,-2.63338 -6,-5.3814 l -6,-4.9964 5.76,5.35812 c 5.75342,5.352 6.24,5.74342 6.24,5.01968 z m 251.52,-4.89498 c 1.79115,-1.848 3.04063,-3.36 2.77663,-3.36 -0.264,0 -1.94548,1.512 -3.73663,3.36 -1.79115,1.848 -3.04064,3.36 -2.77664,3.36 0.264,0 1.94549,-1.512 3.73664,-3.36 z m -44.99754,-0.24 c 1.19411,-1.52262 1.16016,-1.55657 -0.36246,-0.36246 -0.924,0.72466 -1.68,1.48066 -1.68,1.68 0,0.79012 0.78834,0.28158 2.04246,-1.31754 z m -171.96246,-1.53121 c 0,-0.18217 -0.972,-1.15417 -2.16,-2.16 l -2.16,-1.82879 1.82879,2.16 c 1.71861,2.02986 2.49121,2.59703 2.49121,1.82879 z m 175.80246,-1.34879 c 1.19411,-1.52262 1.16016,-1.55657 -0.36246,-0.36246 -0.924,0.72466 -1.68,1.48066 -1.68,1.68 0,0.79012 0.78834,0.28158 2.04246,-1.31754 z m 3.84,-2.88 c 1.19411,-1.52262 1.16016,-1.55657 -0.36246,-0.36246 -0.924,0.72466 -1.68,1.48066 -1.68,1.68 0,0.79012 0.78834,0.28158 2.04246,-1.31754 z m 45.53793,-1.44 2.81961,-3.12 -3.12,2.81961 c -1.716,1.55078 -3.12,2.95478 -3.12,3.12 0,0.74165 0.79212,0.0887 3.42039,-2.81961 z m -37.85793,-4.32 c 1.19411,-1.52262 1.16016,-1.55657 -0.36246,-0.36246 -0.924,0.72466 -1.68,1.48066 -1.68,1.68 0,0.79012 0.78834,0.28158 2.04246,-1.31754 z m -201.72246,-0.60246 c 0,-0.19934 -0.756,-0.95534 -1.68,-1.68 -1.52262,-1.19411 -1.55657,-1.16016 -0.36246,0.36246 1.25412,1.59912 2.04246,2.10766 2.04246,1.31754 z m 245.88246,-1.31754 c 1.19411,-1.52262 1.16016,-1.55657 -0.36246,-0.36246 -0.924,0.72466 -1.68,1.48066 -1.68,1.68 0,0.79012 0.78834,0.28158 2.04246,-1.31754 z m -39.96246,-1.2 c 0.95567,-1.056 1.52158,-1.92 1.25758,-1.92 -0.264,0 -1.26191,0.864 -2.21758,1.92 -0.95567,1.056 -1.52158,1.92 -1.25758,1.92 0.264,0 1.26191,-0.864 2.21758,-1.92 z m 4.44246,-3.6 c 1.19411,-1.52262 1.16016,-1.55657 -0.36246,-0.36246 -0.924,0.72466 -1.68,1.48066 -1.68,1.68 0,0.79012 0.78834,0.28158 2.04246,-1.31754 z m 33.47754,-4.37168 c 0,-0.16042 -1.62,-1.78042 -3.6,-3.6 l -3.6,-3.30832 3.30832,3.6 c 3.07931,3.3508 3.89168,4.0414 3.89168,3.30832 z m -22.91754,-3.30832 c 1.19411,-1.52262 1.16016,-1.55657 -0.36246,-0.36246 -0.924,0.72466 -1.68,1.48066 -1.68,1.68 0,0.79012 0.78834,0.28158 2.04246,-1.31754 z M 460.16243,246.31657 c -0.19108,-3.05528 -0.3492,-0.80305 -0.35136,5.00495 -0.002,5.808 0.15417,8.30777 0.34743,5.55505 0.19325,-2.75272 0.19502,-7.50472 0.004,-10.56 z m -20.15332,-22.54185 c -0.16871,-5.96926 -0.30734,-1.3492 -0.30806,10.2668 -7.3e-4,11.616 0.1373,16.49994 0.30673,10.8532 0.16943,-5.64673 0.17003,-15.15073 9.6e-4,-21.12 z m 21.11363,-18.2932 c -0.18746,-3.3 -0.34084,-0.6 -0.34084,6 0,6.6 0.15338,9.3 0.34084,6 0.18746,-3.3 0.18746,-8.7 0,-12 z m 0.93682,-27.36 c -0.21996,-1.452 -0.39993,-0.264 -0.39993,2.64 0,2.904 0.17997,4.092 0.39993,2.64 0.21996,-1.452 0.21996,-3.828 0,-5.28 z m -22.06344,-44.61463 c -0.2028,-2.25795 -0.37158,-0.64937 -0.37506,3.57463 -0.004,4.224 0.16244,6.07142 0.36871,4.10537 0.20629,-1.96604 0.20914,-5.42204 0.007,-7.68 z m 23.0303,0.93463 c -0.21295,-1.716 -0.38719,-0.312 -0.38719,3.12 0,3.432 0.17424,4.836 0.38719,3.12 0.21295,-1.716 0.21295,-4.524 0,-6.24 z m 2.308,-10.08 c 1.19411,-1.52262 1.16016,-1.55657 -0.36246,-0.36246 -1.59912,1.25412 -2.10766,2.04246 -1.31754,2.04246 0.19934,0 0.95534,-0.756 1.68,-1.68 z m 12.59754,-0.93446 c -1.716,-0.21295 -4.524,-0.21295 -6.24,0 -1.716,0.21295 -0.312,0.38719 3.12,0.38719 3.432,0 4.836,-0.17424 3.12,-0.38719 z m 43.2,-0.90133 c -0.66,-0.26631 -1.74,-0.26631 -2.4,0 -0.66,0.26632 -0.12,0.48422 1.2,0.48422 1.32,0 1.86,-0.2179 1.2,-0.48422 z m -84.96,-1.94597 c -0.924,-0.24146 -2.436,-0.24146 -3.36,0 -0.924,0.24147 -0.168,0.43904 1.68,0.43904 1.848,0 2.604,-0.19757 1.68,-0.43904 z m 30.96,0.28447 c 0,-0.20751 -0.67044,-0.63456 -1.48986,-0.94901 -0.85433,-0.32783 -1.23967,-0.16689 -0.90335,0.37729 0.56377,0.9122 2.39321,1.34923 2.39321,0.57172 z m -83.78,-1.16271 c -0.319,-0.319 -1.14701,-0.3531 -1.84,-0.0757 -0.76582,0.30645 -0.53835,0.53394 0.58,0.58 1.01199,0.0417 1.579,-0.18522 1.26,-0.50421 z m 7.7,-0.0818 c -0.924,-0.24146 -2.436,-0.24146 -3.36,0 -0.924,0.24146 -0.168,0.43903 1.68,0.43903 1.848,0 2.604,-0.19757 1.68,-0.43903 z m 101.78537,-0.0361 c -1.96604,-0.20629 -5.42204,-0.20914 -7.68,-0.007 -2.25796,0.2028 -0.64937,0.37158 3.57463,0.37506 4.224,0.004 6.07141,-0.16244 4.10537,-0.36871 z m 15.09463,-2.208 c 24.45775,-0.9745 26.27202,-1.17439 32.16,-3.54326 15.4782,-6.22727 28.19092,-20.615656 34.0661,-38.556392 3.1376,-9.581125 -0.12942,-20.746197 -8.52811,-29.14489 -2.50026,-2.500255 -4.29409,-4.953388 -3.9863,-5.451408 0.3078,-0.49802 0.0539,-1.218088 -0.56436,-1.600153 -0.70198,-0.433846 -0.86681,-0.278532 -0.439,0.413666 0.40148,0.649618 0.089,1.108328 -0.75502,1.108328 -0.792,0 -1.67934,-0.387258 -1.97186,-0.860574 -0.95256,-1.541268 -8.57892,-5.092654 -13.94034,-6.491631 -6.44696,-1.68223 -75.54248,-1.793264 -77.56111,-0.124638 -0.92664,0.765976 -1.2,10.572106 -1.2,43.047621 v 42.055681 l 2.16,0.30677 c 2.41264,0.34266 4.02514,0.29657 40.56,-1.15912 z m 0.25119,1.28629 c -0.91784,-0.24027 -2.64584,-0.24899 -3.84,-0.0194 -1.19415,0.22962 -0.44319,0.42622 1.66881,0.43688 2.112,0.0106 3.08904,-0.17723 2.17119,-0.41751 z m 22.54881,-0.9779 c -1.188,-0.22883 -3.132,-0.22883 -4.32,0 -1.188,0.22882 -0.216,0.41604 2.16,0.41604 2.376,0 3.348,-0.18722 2.16,-0.41604 z m 19.95626,-7.07176 3.32374,-2.94928 -3.84,2.67044 c -2.112,1.46874 -4.02,2.79591 -4.24001,2.94927 -0.21999,0.15336 0.0123,0.27883 0.51627,0.27883 0.50395,0 2.41195,-1.32717 4.24,-2.94926 z m 9.08374,-7.61074 c 2.6003,-2.64 4.51183,-4.799996 4.24783,-4.799996 -0.264,0 -2.60753,2.159996 -5.20783,4.799996 -2.60031,2.64 -4.51183,4.8 -4.24783,4.8 0.264,0 2.60752,-2.16 5.20783,-4.8 z m 2.94039,1.68 2.81961,-3.12 -3.12,2.81961 c -1.716,1.55078 -3.12,2.95478 -3.12,3.12 0,0.74165 0.79212,0.0887 3.42039,-2.81961 z m 3.42207,-9.119996 c 1.19411,-1.52262 1.16016,-1.55657 -0.36246,-0.36246 -1.59912,1.25412 -2.10766,2.04246 -1.31754,2.04246 0.19934,0 0.95534,-0.756 1.68,-1.68 z m 6.00384,-9.40986 c 0.32783,-0.85433 0.16689,-1.23967 -0.37729,-0.90335 -0.52196,0.32259 -0.94901,0.99302 -0.94901,1.48986 0,1.3809 0.6881,1.07661 1.3263,-0.58651 z m 4.24829,-10.535546 c -0.29557,-0.295572 -0.83236,0.237228 -1.19287,1.184 -0.52098,1.36819 -0.41071,1.478459 0.5374,0.537403 0.65609,-0.651201 0.95105,-1.425831 0.65547,-1.721403 z m 0.87987,-10.294597 c -0.21295,-1.716 -0.38719,-0.312 -0.38719,3.12 0,3.432 0.17424,4.836 0.38719,3.12 0.21295,-1.716 0.21295,-4.524 0,-6.24 z m -8.37446,-19.260393 c 0,-0.165216 -1.404,-1.569216 -3.12,-3.12 l -3.12,-2.819607 2.8196,3.12 c 2.62827,2.908277 3.4204,3.561266 3.4204,2.819607 z m -10.56,-8.819607 c -0.6573,-0.792 -1.65677,-1.44 -2.22103,-1.44 -0.56427,0 -0.18737,0.63426 0.83754,1.409469 2.40813,1.821417 2.8784,1.831794 1.38349,0.03053 z m 4.8,-3.722453 c 0,-0.19935 -0.756,-0.95535 -1.68,-1.68 -1.52262,-1.194116 -1.55657,-1.160161 -0.36246,0.362453 1.25412,1.599118 2.04246,2.10766 2.04246,1.317547 z M 425.15023,31.331821 c -0.64995,-0.262966 -1.94595,-0.278973 -2.88,-0.03557 -0.93405,0.243403 -0.40227,0.458557 1.18173,0.478121 1.584,0.01956 2.34822,-0.179583 1.69827,-0.442549 z m 58.85154,-1.070059 c -9.99361,-0.145122 -18.50493,0.06996 -18.91406,0.47795 -0.40913,0.407995 7.76746,0.526731 18.17019,0.263858 l 18.91406,-0.47795 z m 61.59019,1.119758 c -0.319,-0.318999 -1.14701,-0.353105 -1.84,-0.07579 -0.76582,0.306457 -0.53835,0.533936 0.58,0.580001 1.01199,0.04168 1.579,-0.185211 1.26,-0.504211 z M 412.67023,30.371821 c -0.64995,-0.262966 -1.94595,-0.278973 -2.88,-0.03557 -0.93405,0.243403 -0.40227,0.458557 1.18173,0.478121 1.584,0.01956 2.34822,-0.179583 1.69827,-0.442549 z m 128.64,0 c -0.64995,-0.262966 -1.94595,-0.278973 -2.88,-0.03557 -0.93405,0.243403 -0.40227,0.458557 1.18173,0.478121 1.584,0.01956 2.34822,-0.179583 1.69827,-0.442549 z m -12.45835,-8.720045 c -3.27804,-0.18689 -8.89404,-0.188264 -12.48,-0.0031 -3.58596,0.185209 -0.90392,0.33812 5.96008,0.339799 6.864,0.0016 9.79796,-0.149857 6.51992,-0.336747 z m -48.50273,-0.9362 c -1.44254,-0.219047 -4.03454,-0.223456 -5.76,-0.0098 -1.72545,0.213658 -0.54519,0.392879 2.62281,0.398267 3.168,0.0054 4.57974,-0.169423 3.13719,-0.38847 z M 338.4193,314.55123 c -2.07677,-2.25786 -2.11213,-2.41855 -0.32839,-1.49241 2.38714,1.23942 4.85438,4.0227 3.56594,4.0227 -0.50061,0 -1.95751,-1.13863 -3.23755,-2.53029 z m -6.64734,-5.62971 c -0.66665,-0.80327 -0.77061,-1.44 -0.2351,-1.44 0.528,0 1.4978,0.648 2.1551,1.44 0.66665,0.80327 0.77061,1.44 0.23509,1.44 -0.528,0 -1.49779,-0.648 -2.15509,-1.44 z"
       id="path414" />
  </g>
</svg>
